<?xml version="1.0" encoding="utf-8"?>
<!-- Generator: Adobe Illustrator 26.2.0, SVG Export Plug-In . SVG Version: 6.00 Build 0)  -->
<svg version="1.1" id="Layer_1" xmlns="http://www.w3.org/2000/svg" xmlns:xlink="http://www.w3.org/1999/xlink" x="0px" y="0px"
	 viewBox="0 0 1080 800" style="enable-background:new 0 0 1080 800;" xml:space="preserve">
<style type="text/css">
	.st0{display:none;opacity:0.2;}
	.st1{display:inline;filter:url(#Adobe_OpacityMaskFilter);}
	.st2{display:inline;mask:url(#SVGID_1_);}
	.st3{fill:#57C9EF;}
	.st4{display:inline;filter:url(#Adobe_OpacityMaskFilter_00000019663524232622003520000005640194882320973968_);}
	.st5{display:inline;mask:url(#SVGID_00000090976824484696836310000007810718611153256632_);}
	.st6{display:none;fill:#ECF9FD;}
	.st7{display:none;opacity:0.4;fill:#E9C46A;}
	.st8{fill:#FFFFFF;}
	.st9{fill:#15ADE0;}
	.st10{fill:#15ADE0;stroke:#15ADE0;stroke-width:1.1705;stroke-miterlimit:10;}
	.st11{fill:#3D70B8;}
	.st12{fill:#6399BB;}
	.st13{fill:#EF8089;}
	.st14{fill:#F4A261;}
	.st15{fill:none;stroke:#FFFFFF;stroke-width:10.5321;stroke-miterlimit:10;}
	.st16{opacity:0.8;fill:#FFFFFF;}
	.st17{fill:#335D99;}
	.st18{fill:#6C757D;}
	.st19{fill:#457B9D;}
	.st20{fill:none;stroke:#2B9348;stroke-width:4.3637;stroke-miterlimit:10;}
	.st21{fill:#2B9348;}
	.st22{fill:#51CD74;}
	.st23{fill:none;stroke:#FFFFFF;stroke-width:4.2138;stroke-linecap:round;stroke-linejoin:round;stroke-miterlimit:10;}
	.st24{fill:none;stroke:#15ADE0;stroke-width:4.1487;stroke-linecap:round;stroke-linejoin:round;stroke-miterlimit:10;}
	.st25{display:none;}
	.st26{display:inline;opacity:0.14;}
</style>
<g class="st0">
	<defs>
		<filter id="Adobe_OpacityMaskFilter" filterUnits="userSpaceOnUse" x="-310.7" y="128.1" width="1136.9" height="1136.9">
			<feFlood  style="flood-color:white;flood-opacity:1" result="back"/>
			<feBlend  in="SourceGraphic" in2="back" mode="normal"/>
		</filter>
	</defs>
	<mask maskUnits="userSpaceOnUse" x="-310.7" y="128.1" width="1136.9" height="1136.9" id="SVGID_1_" style="display:inline;">
		<g style="filter:url(#Adobe_OpacityMaskFilter);">
			
				<image style="overflow:visible;" width="4754" height="4754" xlink:href="83562C30.jpg"  transform="matrix(0.24 0 0 0.24 -312.72 126)">
			</image>
		</g>
	</mask>
	<g class="st2">
		<circle class="st3" cx="257.8" cy="696.5" r="568.4"/>
	</g>
</g>
<g class="st0">
	<defs>
		
			<filter id="Adobe_OpacityMaskFilter_00000125584456885946952220000011335052857704846493_" filterUnits="userSpaceOnUse" x="649.1" y="-237" width="644.2" height="644.2">
			<feFlood  style="flood-color:white;flood-opacity:1" result="back"/>
			<feBlend  in="SourceGraphic" in2="back" mode="normal"/>
		</filter>
	</defs>
	
		<mask maskUnits="userSpaceOnUse" x="649.1" y="-237" width="644.2" height="644.2" id="SVGID_00000160889796508180609730000006024382376142029702_" style="display:inline;">
		<g style="filter:url(#Adobe_OpacityMaskFilter_00000125584456885946952220000011335052857704846493_);">
			
				<image style="overflow:visible;" width="2702" height="2702" xlink:href="83562C31.jpg"  transform="matrix(0.24 0 0 0.24 647.04 -239.04)">
			</image>
		</g>
	</mask>
	<g style="display:inline;mask:url(#SVGID_00000160889796508180609730000006024382376142029702_);">
		<circle class="st3" cx="971.2" cy="85.2" r="322.1"/>
	</g>
</g>
<path class="st6" d="M159.4,179c40.5,7.7,74.4-33.7,116.9-48.2c65.7-22.3,79.9,1.7,172-2.8c58.8-2.9,49.8,0.8,139-17.9
	c118.7-24.9,206.1-3.9,232.5,0c88.5,13.2,163.3,45.8,161,61.9c-2,13.4-56,5.2-105.9,46.8c-13.1,10.9-35.3,29.4-31.6,46.8
	c5.8,27.9,69.9,13.5,108.7,56.4c26.7,29.5,37.3,81.8,23.4,121.1c-8.7,24.4-30.3,53.4-45.4,97.7c-1.9,5.7-6.7,20.1,0,27.5
	c7,7.8,20.2,1.1,26.1,6.9c9.8,9.5-7.2,46.3-22,66c-25.3,33.8-75.6,59.1-276.5,61.9c-156,2.2-141.4-12.9-220.1-2.8
	c-94.6,12.1-132.3,36-220.1,27.5c-64-6.2-129.4-27-129.3-46.8c0.1-23.1,89.7-18.9,104.6-61.9C211.6,564,78,515.9,78.2,415.6
	c0.1-64.2,55-82.7,46.8-159.6c-5.2-49.1-32.5-87.4-20.6-96.3C113.2,153.1,129.2,173.2,159.4,179z"/>
<path class="st7" d="M100.2,110.2C112.7,98.5,145.1,71,320.4,40C480.6,11.8,584.7-6.6,722.1,18c85.1,15.3,157.6,28.3,225.6,88.1
	c77.3,68,100.8,154.1,112.8,200.9c4.9,18.8,64.6,264.3-75.7,389.4c-40.1,35.8-79.7,46.6-145.8,64.7c-151.6,41.4-216.2,4.1-429.2,9.6
	c-190.7,4.9-206,36.6-261.4,5.5C9.4,698.1,16.9,449,19.1,375.7C21.8,286.3,24.9,180.8,100.2,110.2z"/>
<g>
	<g>
		<g>
			<path class="st8" d="M262.4,689.9c27.3-44.7,55.4-89,84.2-132.7c4.9-0.2,6.3-6.8,9.1-9.8c5.2-0.1,9.2-2.7,10.8-7.9
				c5.7,1.3,10.6-2.5,12.5-8c78.4,8.3,109.2-49.6,177.9,29.3c35.4-44.1,80.3-47.1,131.5-31.4c12.1,3.3,24.9,6.9,36.9,3.5
				c1.8,1.3,2.1,4.1,2.8,6.1c3,0,5.9-0.7,8.7-1.2c0.8,1.4,1.4,3,1.8,4.4c2.1-0.2,4.2-0.5,6.3-1.7c23.9,48.8,45.9,95.4,73.7,142
				c-69,0.8-141.3-4.6-229.6-3.5c-12.9,9.5-20.8,23.2-39.2,15.6c-13.6-4.9-21.2-15.3-36.9-17.5C429.5,677.6,346.4,687.3,262.4,689.9
				z"/>
		</g>
		<g>
			<path class="st9" d="M561.8,697c-12.2-0.4-18.8-4.8-28.2-10.1c-4.5-2.6-18.6-8.2-41.7-8.2c-71.4-2.2-128.9,6.8-231,12.9
				c-0.8-1.3-0.8-2.9,0-4.2c16.4-25.7,31.8-46.9,46.7-70.5c14.9-21.5,26-46.6,41.9-63.8c1.8,1.2,1.3,3,0.2,4.8
				c-27.2,42.7-54.2,85.7-82.4,130c100.8-10.2,167.5-14.6,238.1-14.1c2.2,0,16.3,1.9,20.4,4.3c6.6,3.8,7,2.3,11.8,5.1
				c3.9,2.3,7.3,4.3,10.9,5.9c5.1,2.3,14.9,5.4,22.7,0.7c9.2-7.8,17-17.2,30.5-15.6c88.2-1.2,159.9,0.9,213.6,6.1
				c-27.5-43-50.8-92.2-69.4-138c2-0.8,4.3,0.2,5.1,2.3c17.1,50.1,48.3,93.5,70.6,139.5c-54.8-0.7-139-10.5-230.7-3.4
				C582,686.2,574,698.3,561.8,697z"/>
		</g>
		<g>
			<path class="st10" d="M559.7,680.8c-5.4-32-10.5-78.2-2.4-120.5c1.2,37.9-0.1,70.3,2.8,108.6
				C559.8,669.2,561.8,681.6,559.7,680.8z"/>
		</g>
		<g>
			<path class="st10" d="M537.9,686.9c-5.3-2.8,19-8,21.7-7.4c4.3,0.6,19.7,0.9,21.5,3.8c-1.9,2-11.2-1.5-14.6-1.2
				C556.6,680.1,547,683.4,537.9,686.9z"/>
		</g>
		<g>
			<path class="st10" d="M559,679.6c21-45.2,84.2-58.6,134.2-45.4c25.1,6.1,50,16.6,74.9,21.1c9.4,1.3,21.5,6.1,16.3-1.9
				c-21-30.4-43.5-81.4-59.2-119.5c-11.7,2.8-23.6-0.4-35.2-3.4c-60.1-18.6-97-4-133.4,31.6c27.4-42.4,75.4-50.2,133.9-33.6
				c11.6,3.1,23.6,6.3,35,3.2c1.6-1,4,8.4,4.7,8.9c17.7,43,36.4,83,59.9,119.4c-32.9,0.8-65.1-16.8-97.3-23.9
				C641,622.7,587.2,636.4,559,679.6z"/>
		</g>
		<g>
			<path class="st10" d="M556.7,568.3c-6.1-17.3-35.8-41.9-52.3-46.1c-39.4-11.6-83.3,19.7-125.8,10.1c-1.2-0.2-0.9-2.2,0.4-1.9
				c23.9,4.2,41.8-0.2,63.3-5.7c22.3-6.3,46-12.1,62.7-4.4c20.6,6.4,37.9,22.6,53,39.5c0.4,0.4,0.3,1-0.1,1.4
				C557.6,561.4,556.9,568.3,556.7,568.3z"/>
		</g>
		<g>
			<path class="st10" d="M558.3,679.9c-49.1-63.9-146.1-69.7-214-34.4c-12.4,6.5-26.6,13.8-39.6,5.3c22.2-39.4,50.5-79.6,73.3-120
				c1.8-1.6,1.8,1,1,2.2c-23.5,39.6-47.3,78-72.4,116.6c11.9,7,25.1,0.1,36.8-6C402,605,521.1,615,558.3,679.9z"/>
		</g>
		<g>
			<path class="st10" d="M574.6,681.6c-0.9,0-1.4-1.2-0.6-1.7c22.6-20.4,63.1-19.6,93.1-15.5c40.9,4.4,129.5,9.7,143.7,10
				c-29.1-44.7-43.7-86.6-66.4-132.7c-1.5,0.5-5.2,2.5-5.9,0.2c0-0.5,0.4-1,1-1c2.1,0.3,3.7-1.2,5.5-1.6
				c15.7,27.5,25.3,57.8,40.1,86c7.2,14,17.5,32,28.3,49.5c0.4,0.6,0,1.4-0.7,1.5c-3.3,0.4-103.2-5.3-145.8-10
				C636.9,662.2,597.3,661.7,574.6,681.6z"/>
		</g>
		<g>
			<path class="st10" d="M544.7,683.7c-55.5-42.1-115.9-28.9-174.2-18.5c-26.5,3.1-67.1,17.1-91.9,5.8c9.3-21.7,26.5-43.5,38.9-64.6
				c13.3-20.7,25.9-40.3,37.2-59.9c2-1.2,7.1-1,8.3-2c0.5-0.3,1.1-0.1,1.3,0.4c0.4,2.7-5.9,2.5-8.2,3.1
				c-23.1,39.9-52.2,81.1-75.8,121.8c26.6,10.2,74-5.5,102.7-9C434.6,652.3,501.5,641.1,544.7,683.7z"/>
		</g>
		<g>
			<path class="st10" d="M565.8,680.8c12.1-23.4,48.8-38.3,76.4-39.9c24.3-1.2,48.2,6,71.5,12c47.9,12.4,71.3,11.7,81.8,11
				c1.2-0.1,2.5-0.6,1.1-2.5c-17.4-27.9-44.6-85.6-60.1-122.6c-2.3,0.4-7.5,2.5-8.7-0.2c1.1-1.9,6.3,0,8.8-2c0.5-0.2,1.1,0,1.3,0.5
				c19.5,46.6,39.9,88.1,62.5,127C720.3,678,636.5,599.6,565.8,680.8z"/>
		</g>
		<g>
			<path class="st10" d="M549.9,682c-45.1-45.9-117.8-51-178.6-28.8c-26,7.3-58.5,19.3-82.9,8.2c5.5-8.6,12.9-19.8,20.8-31.7
				c22.1-33.5,49.6-75.2,56.6-90.7c2.3-1.8,6.5,0.1,8.7-2.2c1-0.8,2.3,0.7,1.3,1.5c-2.6,2.2-5.5,1.6-8.4,2
				c-10.1,21.7-55.1,87.9-76.5,121c32.7,7.8,65.6-6.3,97.2-15.2C443.3,629.9,516.6,638.3,549.9,682z"/>
		</g>
	</g>
	<g>
		<g>
			<path class="st11" d="M677.2,106.7c3.7,9.8,25.5,11.7,26.7,19.7c-2.2,6.6,5.1,12.7,2.9,20.6c-1,3.3,1.3,5.6,4.8,5.6
				c20.4-0.8,15.5-8.6,3.9-19.2c-1.9-2.7-1.2-7.7-5.2-8.7c-4-0.1-6.2-3.1-9.3-5c-9.5-4.2-25.8-10-21.7-23.1
				c4.2-9.4,19.3-9.1,21.6-20.2c3.2-2.7,9.5,5.2,12.5,6.8c8.1,6.1,12.7,7.5,10.9,19c-8,47.8,67,45.1,88.3,18.8
				c2.9-7.1-4.6-29.5,1.7-32.5c7.8-4.6,16.7-8,22.6-14.7c4.3-2.9-25.3-15.3-28.3-17.4c-19.4-7.6-40.7-22.5-61.9-13.1
				c-17.1,5.8-34.5,12.2-48.1,23.4c-2.8,2.3,0.5,4.9,0.3,7.9C696.5,88.9,669.6,85.9,677.2,106.7z M806.6,110.9
				c0.7-2.6,0.1-5.6-1.5-7.4c-1.2-3.3-1.8-8.9,1.7-11.1c5.1-4.5,2.9,13.1,3.6,15.6c0.1,3.8,1.6,9.2-0.7,12.4
				c-3.6,5.6-5.3,0.4-5.3-3.7C804.1,114.4,806.1,113,806.6,110.9z M803.4,111.5c-2.1-0.7-2.7-7.3,0.5-6.1
				C805.3,106.8,806,111.2,803.4,111.5z M726.6,106.4c0.3-3-1.1-12,1-13.5c10.7,5.3,21.4,11.5,32.8,15.6c4.2,1.7,7.7,4.4,12.2,2
				c8.1-4.3,16.2-8.7,24.4-13c2.1-1.1,5.5-4.1,5.5,0.1c0,1.3-0.1,3.7-0.5,5c-5.7,9.1,2.6,9.6,1.3,21.9c-0.4,3.8-8.4,5.6-11.3,6.7
				C769.5,141.6,724.7,139.6,726.6,106.4z M701.5,67.2c9.4-8.9,51.9-25.9,62.6-25.2c11,1.5,57.2,21.5,66.9,29
				c7.5,4.9-64.7,40.1-61.7,37.4c-11.7-0.6-56.4-26.3-64.3-35.6C704.4,72.4,699.7,68.7,701.5,67.2z M708.6,136.2
				c5.1-6.1,12.6,5.2,13.9,10c1.3,3.7-9.4,4.2-11.4,4.2c-3.3,0.3-2.1-6.7-2.3-8.6C708.8,140.2,708.2,137.7,708.6,136.2z
				 M705.8,130.1c-0.3-4,6-4.4,6.3-0.4C712.3,133.7,706,134.1,705.8,130.1z"/>
			<path class="st11" d="M712.9,153.7c-12.3,0.8-4.4-12.5-9.1-18.9c-1.5-2.6-2.5-5.9-1.1-8.8c-2.6-6.7-22.3-8.8-26.6-18.8l0,0
				c-9-23.8,25.7-20.4,20.8-35.6c-5.6-12.6,54.6-33.1,65.3-33.2c26.6,4.5,51.3,18.6,74.7,31.5c7.8,5.7-18.1,16.5-22.1,19.3
				c-1.7,0.8-2.1,1.9-1.9,3.8c0,0,1.3,21,1.3,21c0.5,5.5-0.5,9.3-5.6,13c-23.3,16.9-79.4,23.7-85.6-13.5
				c0.1-26.3,3.1-19.2-17.5-35.1c-2.7-2.3-4-2.6-4.6,0.1c-2.5,9.6-17.2,9.7-20.7,18.1c-4.1,14.3,15.8,17.4,24.4,23.9
				c1.6,1.7,3.6,2.2,5.8,2.6c4.2,0.8,4.2,6.2,5.9,9.2C728.1,142.9,733.5,152.3,712.9,153.7z M707.9,148.8c0,0.7,0.2,1.2,0.6,1.6
				C708.2,149.9,708,149.4,707.9,148.8z M709.7,136.5c0.1,2.7-0.1,11.4,0.8,12.6c3.1,0.3,9.6-0.6,10.8-2.1
				C721.4,144.8,714.8,132.5,709.7,136.5L709.7,136.5z M721.5,141.1c1.3,3,3.5,5.2,1.4,7.7c0.5-0.3,1.6-0.9,1.8-1.2
				C724.2,145.2,722.8,143.1,721.5,141.1z M725.4,106.9c-3.7,30.6,37.4,35.9,59.6,28.3c9.5-3.5,23.9-6.4,26.9-16.8
				c-0.7,3.4-5,8.3-7.4,4.4c1.1,6-7.3,7.9-12,9.6C770.1,143,723.3,140.4,725.4,106.9z M705.4,132.4c0.7,1.5,1.4,3.1,1.9,4.7
				c0-0.4,0.1-0.9,0.2-1.2l0,0c0.2-0.7,0.6-1.3,1.1-1.7C707.3,134,706.2,133.5,705.4,132.4z M727.8,106.4
				c-2.6,25.3,29.2,32.9,48.6,28.1c7.7-2.2,22.6-4.8,25.8-10.1c-0.1-2.6,0-5.7-0.5-8.2c-3-4.5-4.1-9.8-0.7-14
				c0.3-0.8,0.7-4.3,0.3-5.6c-5,2.6-10.4,5.6-15.5,8.3c-7.2,3.4-15.5,11-23.2,5.7c-11.8-4.7-23.5-10.1-34.5-16.5
				C727.7,98.2,727.7,102,727.8,106.4L727.8,106.4z M711.5,133.2c1.5,0.1,2.1,0.4,3.1,0.8c-0.8-1.1-1.2-2.3-1.5-3.4
				C712.9,131.8,712.3,132.6,711.5,133.2z M706.9,130.1c0.4,2.5,4.2,2,3.9-0.5C710.4,127.2,706.7,127.7,706.9,130.1z M704.4,123.6
				c1.8,2.1-0.5,4.3,0.1,6.6c-0.3-3.2,3.2-5.6,6.1-4.3C708.4,125.1,706.5,125.4,704.4,123.6z M806.8,121.8
				C806.8,121.8,806.8,121.8,806.8,121.8L806.8,121.8C806.8,121.8,806.8,121.8,806.8,121.8z M807.8,111.2c-0.4,2-2.4,3.4-2.2,5.4
				c0.2,1.7,0.1,4.1,1.2,5.2c2.9-1.4,3.5-6.9,2.7-10.6c-0.7-6.1-0.1-12.3-1.1-18.3c-3.6,1-3.2,6.6-2.4,9.8
				C807.9,104.8,808.6,108.2,807.8,111.2L807.8,111.2z M802.3,112.3c0.5,0.8,0.9,1.2,1.3,2.1c0.3-0.8,0.7-1.4,1.1-2
				C803.9,112.8,802.9,112.8,802.3,112.3z M677.5,98.5c-0.5,2.4-0.5,5.2,0.8,7.6l0,0c1.3,2.4,2.9,3.9,4.9,5.4
				C679.4,108.3,676.8,103.1,677.5,98.5z M803.1,106.4c-0.6,1-0.2,2.8,0.4,3.8C804.2,109.3,803.9,107.3,803.1,106.4z M763.2,108.3
				c5,3.2,9.3,1.3,13.7-1.5C770.3,109.7,769.3,110.6,763.2,108.3z M702.3,68.2c16.1,17.5,47.8,33.7,66.9,39.1
				c6.7-0.8,48.2-24.5,61-33.8c1-0.9,1.2-0.7,0.2-1.4c-10.2-7.8-55.5-27.3-66.3-28.8C753.4,42.7,712,59.2,702.3,68.2L702.3,68.2z
				 M730.3,92.5c9.2,5.7,19.1,10.2,29.1,14.2C751.2,102.8,744.6,100.5,730.3,92.5z M803.1,104c0.4,0,0.8,0.1,1.1,0.3c0,0,0,0,0,0
				c-0.6-0.6-0.8-1.3-0.9-2c-0.1,0.6-0.4,1.2-0.7,1.8C802.8,104,803,104,803.1,104z M685,88.8c-3,1.7-5.7,3.9-6.8,7.2
				C679.5,92.9,682,90.7,685,88.8z M801.3,94.3c0.8,0,1.7,0.5,2,1.2c0.1-2.5,5.4-7.5,7.2-3.8c1.5-7.1,20.8-11,25.7-19.2
				c-7.5-4.5-15.4-8.9-23.4-12.8c9,5.5,17.2,7.2,20.4,12.9c-4.7,7.6-19.2,13.1-32.6,21.7C801,94.3,801.1,94.3,801.3,94.3z
				 M702.4,74.3c4.8,1.1,7.8,5.2,11.8,7.8c4,3.8,11.1,6,11.4,12.3c-0.4-2.5,2.2-3.6,4.5-2.1c-8.7-4.9-17.5-11.3-25.7-18.4l0.4-1.3
				l-0.8,0.9c-3.3-3.1-5.1-4.5-3.5-7.1c-4,1.8,0.4,5.6-0.5,8.9C700.7,74.7,701.5,74.3,702.4,74.3z M697.8,80.4
				c-1.4,1.7-2.6,2.7-4.3,3.8C695.1,83.2,696.8,82,697.8,80.4z M701.5,67.2l0.7,0.9v0L701.5,67.2l0.7,0.9L701.5,67.2z M762.5,40.9
				c-20.4,3-41.3,12-58.5,23.1C716.4,54.9,749,42.1,762.5,40.9z M765.4,41.1c4.4,1,18,5.7,28.5,9.9C784.5,47.4,775.2,43,765.4,41.1z
				"/>
		</g>
	</g>
	<g>
		<g>
			<g>
				<path class="st12" d="M131.8,562c-0.1,5.9,0,11.8-0.5,17.7c-0.5,2.6,1,3.2-2.1,4.2c-16-0.4-32.3-0.1-48.4-0.3
					c-14,0.1-26.9,0.6-41,0.8c-0.5-0.2-4.4,0.3-4.2-1.4c-0.4-32.4,0.7-65.5,1.6-98.3c0.3-7.5,12,0.8,15.8,1.5
					c9.2,4.9,10.8-2.2,11.3-10c0.3-5.1,0.8-9.6,1.2-14.7c-0.7-6.3,7.9-3.7,11.9-3.9c15.7-0.2,30.8-0.6,46.3-1.2c0.1,0.1,0.8,0,1,0.1
					c0.4,0,1.4,0,1.8,0c0,0.1,2.8,0,2.8,0.1c2.5-0.3,2.1,4.4,2.2,5.9c0.5,11.6,0.4,23,0.2,34.4c6.7-10.8,5.5-21.3,4.9-33.6
					c-0.1-3.5,0.2-9.2-2.4-11.3c-8.1-1.6-17.1,0.2-25.5-0.1c-13.1,0.3-26.6,0.6-40,0.7c-3.2,0.1-6.3-0.6-8.9,1.6
					c-7.1,6.7-16.2,14.7-23.7,19.7c-7.3,3.4-3.6,18.1-4.4,25.2c-0.7,28.6-0.9,57.6-1.5,86.1c0,0,0,0.4,0,0.4c-0.1,0.5,0,1.1-0.1,1.5
					c-0.9,5,26.7,1.1,31,2c21.3-1,42.4,0.8,63.7-0.1c5.9-0.3,11,0.1,11.4-6.6c0.8-7.4,0.6-15,0.7-22.4
					C135.2,560.9,133.5,561.5,131.8,562z M41.4,476.3c6.6-4.7,13.2-9.8,18.9-15.8c-2,29.2,2.6,21.7-20.1,16.7L41.4,476.3z"/>
				<path class="st12" d="M53.6,499.7c0,1.1,1.6,2.5,4.6,2.3c18-0.3,36.3-0.9,54.3-1.7c5.8-0.2,6.6-5,0.7-5.1
					c-18.3,0.8-36.8,1.4-55,1.7C55,497,53.5,498.4,53.6,499.7z"/>
				<path class="st12" d="M53.6,540.1c0,1.2,1.8,2.5,4.9,2.4c19.2-1,39.2,1.9,57.9,0.6c2.4-2.3-0.3-4.1-4.1-4.4
					C103.3,539.3,55.9,533.7,53.6,540.1z"/>
				<path class="st12" d="M87.9,564c4.6-0.5,29.5,2.7,29.4-2.4c-0.4-1.2-2.6-2.7-6.5-2.5c-5.1,2.4-66.1-4.8-55.7,4.2
					C64.7,565.3,77.7,562.7,87.9,564z"/>
				<path class="st12" d="M87.9,522.1c4.6-0.5,29.5,2.7,29.4-2.4c-0.4-1.2-2.6-2.7-6.5-2.5c-5.1,2.4-66.1-4.8-55.7,4.2
					C64.7,523.3,77.7,520.7,87.9,522.1z"/>
			</g>
		</g>
		<g>
			<path class="st13" d="M169.6,462.2c-13.9-5.8-47.8,64.7-47.3,78.9c-1.9,7.7-8,31.1,4.9,16.3c0.2-0.2,4-2.8,4-3.1
				c9-5.6,16.1-8.3,21.7-17.5c13.2-12.8,14.7-31.6,26.4-45.8c2.7-3.6,9.5-9.5,6.5-14.5C185.1,469.3,177.2,462.9,169.6,462.2
				L169.6,462.2z M173.2,471.6c4.6,2.1,6.3,6.7,10.6,8.7c-3.2,9.1-6,3.9-10.4,0.7c-4.2-4.3-13.4-2.9-15.7-8.1
				C159.5,466.9,171.3,470.7,173.2,471.6z M141,525.2c-1.4-1.2-2.9-1.4-4.2-1c9.1-15.2,18.4-30.4,27.4-45.7c2.4,0.7,5,1.8,6.9,3.1
				c-10.8,15.1-18,33.2-28.5,48.6C142.9,528.3,142.3,526.7,141,525.2L141,525.2z M141.2,499.3c5.1-7.5,9.6-15.5,14.4-23
				c1.8,1.1,4.8,0.9,6.5,1.8c-10.2,14.8-18.8,31.1-27.3,47l0,0c0.2-2.6-2.8-5-5-3.7C132.5,513.9,137.5,505.7,141.2,499.3z
				 M137.8,547.1c-2.8,1.7-5.3,3.7-8.1,5.4c0.1-0.3,0.1-0.3,0.1-0.6c-0.6-1.7-3-4.3-5.1-4.6c2.1-6.5,2.2-15.5,4.2-22.3
				c6.6-2.2,1,5.7,5.8,2.6c0,0,0.3,0.1,0.4-0.2c2.7-1.7,8.2,3.6,5.3,7.2c-0.5,0.9,0.6,1.7,1.4,1.2c2.5-1.7,2.6-2.3,5.2,0.3
				C152.9,539.9,140.4,543.8,137.8,547.1L137.8,547.1z M174.9,492.2c-9.4,13.8-14.1,31-24.6,44c0.6-3.4-4.5-5.7-7.1-4.1
				c10.9-15.9,19.4-33.4,29.4-49.7c1.7,1,4,5.4,5.9,5.7C177.2,489.8,175.7,491.4,174.9,492.2z M183.7,477.8
				c-5.8-5.6-13.2-11.7-21.9-10.1C168.7,458.8,182.5,468.5,183.7,477.8L183.7,477.8z"/>
		</g>
	</g>
	<g>
		<g>
			<path class="st14" d="M589.5,346.6c-10.5-8.5-25.3-13.3-40.8-13.3c-48.9-1.7-65.3,45.9-57.4,85.6c3.4,18.7,10.7,31.4,26.4,37.9
				c-0.2,6.9,3.3,12.5,9.3,15.7c-1.9,7.5,1.2,13.5,7.9,16.5c-3.6,21,39.8,14.6,34.6-4.6c5.8-4,9.6-11.8,6.9-18.5
				c6-5.1,9.2-12.4,8.7-20.1C612.2,425.6,619.1,371.4,589.5,346.6z M568.6,477.7c-6.3,8.9-36.5,13.6-36.4-2.9
				c12.2,4.2,28.7,1.3,39.2-5.3C571.6,472.5,570.7,475.3,568.6,477.7z M580.2,443c-9,6.2-20.2,8.8-28.7,10.4
				c-1.9-16.2-1.5-31.6,2.4-47.5c29.1-10.3,4-26.4-3.5-4.8c-4.8,1.9-10.6,3.2-15.8,4.7c-8.3-20.2-24.6,6.3-4.3,6.5
				c5.1,13.9,8,29.1,10.2,42c-46.7,2.7-51.9-54.6-39.5-86.7c8.2-21,30.1-28.5,47.9-28.5c35-0.3,60,26.3,52.9,60.4
				C600.5,418.9,595.3,433.9,580.2,443z M548.1,408.1c-3.2,11.8-4.1,25-3,39.8c-2.6-13.1-4.9-23.8-8.5-36.1
				C540.3,411.1,544.2,409.7,548.1,408.1z M546.2,470.9c-11.2-0.4-20.2-2.9-22.6-12.2c7.4,2,15.9,2.1,24.1,1
				c10.3-0.8,21.6-4.6,31.8-10.2C577.3,464.4,561.9,470.5,546.2,470.9z M551,496.2c-2.8,0.2-12,0.3-10.8-5.4c7.7,1.8,17,0.3,23.8-3
				C563.2,494.5,554.1,495.9,551,496.2z"/>
			<path class="st14" d="M533.2,314.6c1.7,0,3.4-1.6,3.3-3.3c0,0-0.9-17.5-0.9-17.5c-0.3-4.1-5.9-2.3-5.6,0.9c0,0,0.9,17.5,0.9,17.5
				C530.9,313.8,532.1,314.6,533.2,314.6z"/>
			<path class="st14" d="M493.8,334.5c0.5-1.2,0.3-2.4-0.6-3.3l-12.5-12.3c-2.6-2.5-6.3,2.4-3.8,4.7c0,0,12.5,12.3,12.5,12.3
				C490.9,337.3,493,336.3,493.8,334.5z"/>
			<path class="st14" d="M453,366.7l16.8,3.6c3.2,0.7,5.5-4.8,1.9-5.7c0,0-17.2-3.7-17.2-3.7C451.4,360.9,449.7,365.9,453,366.7z"/>
			<path class="st14" d="M472.5,401.7l-18.3,0.7c-3.4,0-4.4,5.9-0.5,5.8c0,0,18.3-0.7,18.3-0.7C475.3,407.5,476.4,401.7,472.5,401.7
				z M453.6,407.5L453.6,407.5L453.6,407.5L453.6,407.5z"/>
			<path class="st14" d="M578.7,318.9c3.4,1,9.3-17.6,10.8-19.3c0.9-1.8-0.3-3.8-2.3-3.8c-3.4-1-9.4,17.6-10.9,19.4
				C575.4,317,576.7,318.9,578.7,318.9z"/>
			<path class="st14" d="M632.7,323.3c-2.1-7.1-21.7,8.6-25.5,11.1c-3,2.5,0.6,6.8,3.3,4.4c6.1-5,13-9.1,20.4-12.2
				C632.5,326,632.9,324.5,632.7,323.3z"/>
			<path class="st14" d="M650.9,366c-0.2-1.4-1.1-2.1-2.7-2.1l-23,5.6c-3,0.6-3.2,5.7,0,5.8c0,0,23.3-5.7,23.3-5.7
				C650.2,369.1,651,367.4,650.9,366z"/>
			<path class="st14" d="M649.3,398.1c0,0-18.3,1-18.3,1c-3.4,0.1-4.4,6-0.5,5.8c0,0,18.3-1,18.3-1
				C652.1,403.9,653.2,398.1,649.3,398.1z M630.5,404.1L630.5,404.1L630.5,404.1L630.5,404.1z"/>
		</g>
	</g>
	<g>
		<path class="st15" d="M287.5,626.9c45.8-19.5,90.3,37.9,56.6,75.1C291.1,753.1,222,662.9,287.5,626.9z"/>
		<path class="st16" d="M290.2,632.5c40.5-17.2,79.7,33.4,50,66.3C293.4,743.9,232.4,664.3,290.2,632.5z"/>
		<g>
			<g>
				<path class="st17" d="M290.6,630.5c-69.7,35,17.4,126.2,56.4,60.5C366.2,656,327.7,613.7,290.6,630.5z M292.2,635.4
					c45.6-18.7,77.6,44.7,34.7,69.6C282.9,725.7,243.3,657.3,292.2,635.4z"/>
				<path class="st17" d="M200.8,755.8c9.6,18.1,39.1-12.2,49.9-18.4c4.7-3.5,9.6-7.1,14.5-10.6c1.9-1.4,0.8-3.5-0.3-5
					c0.2-0.2,11.3-8.3,11.3-8.6c51.4,42.5,116.8-27.5,74.4-78.2c-40.3-49.7-124.5,2.2-90.6,59.1c-0.2-0.6-10,9.3-10.3,9.4
					c-1-1.2-3-2.7-4.3-1.4c0,0-30.9,27.7-30.9,27.7C209.5,734.8,197.6,746.3,200.8,755.8z M272.4,709.9l-10.2,7.7
					c-2.6-3.8-5.6-7.3-8.8-10.5l9.1-8.7C265.3,702.6,268.7,706.4,272.4,709.9z M252.6,729.5c-11.2,7.2-23.9,17.9-35.1,24.7
					c-7.8,4.4-15.6,1.9-10-7.8c4.2-8.9,24-24.6,31.5-31.7C243.9,719.4,248.5,724.4,252.6,729.5z M287.2,624.6
					c45.8-20.5,92,32.6,63.5,74.6C302.4,766.7,208.9,661.9,287.2,624.6z"/>
			</g>
		</g>
	</g>
	<g>
		<g>
			<path class="st13" d="M959,661.5c-31,0-60.9-1.2-80.5-2.2c-4.6-0.2-8-3.6-8.9-8.9c-4.3-24.7-1.4-63.9,0-84.6
				c0.3-5,4.1-8.8,8.9-9.1c37.6,0.2,153.6-11.1,152.4,9.1c1.2,21.5-2.1,63.6,0,83.9c0.6,5-4,9.1-8.9,9.5
				C1002.6,660.9,980.6,661.5,959,661.5z M1021.9,657L1021.9,657L1021.9,657z M957.9,558.9c-6.3,1.5-87.1-3-83.8,7.2
				c-1.3,19.1-4.2,59.3,0,83.5c1.6,12.7,119.1,6.3,147.7,5.2c2.5-0.2,5-2,4.8-4.5c-1.2-11.6-0.7-29.6-0.2-47
				c-0.9-11.2,4.5-42.6-4.5-42C1003.1,559.7,981.7,558.9,957.9,558.9z"/>
		</g>
		<g>
			<g>
				<path class="st18" d="M954.5,606.9c2.1-0.4,6.7-3.9,9.3-5.6c3.3-1.1,9.5-5.5,3.8-8.3c-7.6-4.3-15.7-10.9-24.5-12.3
					c-4,0.6-1,6.3-1.7,9c0.1,2.6-0.2,11.5,0.1,14.8C940.8,616.8,949.4,609.6,954.5,606.9z"/>
			</g>
		</g>
		<path class="st13" d="M1013.4,634.6c-31.5-2.4-61.1,0.6-92.1,0c-0.1-2.1,1.7-5.6-1.4-6.3c-3.4-0.4-2.9,4.1-3.2,6.4
			c-10,0.3-19,1.1-28.6-0.7c-13.5,7.1,25.7,5.6,28.8,5.2c-0.2,7.2,6.9,7.5,4.5-0.1c27,0.9,52.2-2.3,79.7-0.5
			c3.1-0.7,13.5,2.8,14.3-1.6C1015.6,635.7,1014.6,634.7,1013.4,634.6z"/>
	</g>
	<g>
		<g>
			<g>
				<path class="st19" d="M158.4,245.3c-6.2,0.1-16.5-2.5-15.5,3.4c0.4,0.8,1.2,1.3,2,1.3c2.4-0.7,7.2-0.6,13.1-0.2
					C160.8,250.1,161.4,245.4,158.4,245.3z"/>
				<path class="st19" d="M210.6,172.5c-0.2-3.7-0.5-7-0.5-10.9c1.6-8.4-4-9.1-10.6-8.6c-0.8-7.1-6.6-10.5-12.7-9.8
					c-11.1-0.4-17.9,0.8-31.3,0c-9.8-0.9-24.7,0.8-35.6,0.1c-14.8-0.3-21.1,2-19.5,16c-9.2-0.9-6.7,9.8-1.9,4.6
					c0.4-0.1,1-0.1,1.7-0.1c-0.2,2.6-0.3,5.2,0.1,7.7c-9.2-0.9-6.5,9.8-1.8,4.6c0.5-0.1,1.5-0.1,2.6-0.1c0.5,2.5,0.9,4.6,0.9,7.7
					c-11.4-1.8-8.4,9.9-3.5,4.6c0.7-0.2,1.9-0.1,3.5,0c-0.1,2.1-0.3,4.6-0.6,7.7c-10.5-1.5-7.7,9.8-2.9,4.6c0.5-0.1,1.4-0.1,2.4-0.1
					c-0.2,2.3-0.6,5.6-0.8,7.7c-9-0.8-6.2,9.8-1.6,4.6c0.3-0.1,0.7-0.1,1.1-0.1c-0.4,4.4,0.1,3.7,0.3,7.7c-8.6-0.7-6,9.8-1.4,4.6
					c0.3-0.1,0.9-0.1,1.4-0.1c0,2.8-0.1,5.4-0.1,7.7c-8.6-0.7-6,9.7-1.3,4.6c0.3-0.1,0.7-0.1,1.1-0.1c-2.5,22.9,10.7,26.7,29.5,26.7
					l0-0.2c6.6-0.2,7.4-1.5,16.5-0.6c13.2,0.9,20.4-0.7,31.1-0.3c11.3-0.6,17.6,2.5,22.6-7.3c2.8-12.9,0-27.7,0.1-41.5
					c14,1.6,10.6-6.5,11.4-18.4C210.8,189.2,211.6,177.6,210.6,172.5z M196.1,250.8c1.1,7.5-9,7.8-13.4,7.7
					c-4.6,0.1-19.4-0.1-26.1,0.5c-2.8,0.7-20.6-1.2-23.3,0.1c-16.3,0.5-32,1.3-29.2-21.5c2.3-0.1,6.6,2.6,7.6-0.7
					c0.3-3.8-4.6-3-7.5-3.8c0.1-2.3,0.1-4.8,0.1-7.6c2.3,0,6.4,2.5,7.3-0.8c0.4-3.8-4.6-3-7.4-3.8c-0.1-4.5-0.7-3.2-0.3-7.7
					c2.3-0.1,6.6,2.7,7.7-0.7c0.4-3.7-4.4-3-7.2-3.8c0.2-2.1,0.6-5.3,0.8-7.5c2.1,0.2,5.6,2.1,6.4-0.9c0.5-3.3-3.5-2.9-6-3.6
					c0.3-3,0.5-5.4,0.6-7.5c7.2,2.4,7.3-4.5,0.1-4.6c0-3.2-0.3-5.4-0.8-7.8c2,0.2,5.2,1.9,6-1c0.4-3.7-4.2-3-6.9-3.7
					c-0.5-2.3-0.3-5-0.1-7.6c2.2,0,6.1,2.4,7.1-0.8c0.4-3.6-4.2-3-6.9-3.7c-1.2-12.7,2.6-11.4,15-11.8c12.1,0.8,27-1.1,38.3,0.1
					c14.6,0.6,20.4-1,32.6,0.1c3,0.6,4.8,4.3,4.5,9c-1.1,20.7-0.2,42.7-0.3,64.7C195.4,233.2,197.5,241.2,196.1,250.8z M206.6,180.4
					c-0.2,7.5-0.1,22.2-0.9,29c-0.9,0.4-3.6,0.4-6.2,0.2c0.2-19.4-0.8-34.7,0.3-52.1c1.7-0.3,4.9,0.3,5.8,0
					C205.3,165.1,206.2,172.2,206.6,180.4z"/>
			</g>
		</g>
		<g>
			<path class="st14" d="M137.7,171.1c-1.2-1.3-3.3,0-4.7,0.5c-0.8,0.3-1.8,0.2-2.4,0.9c-1.5,3.8,3,1.7,4.7,1
				c-2.2,5-10.6,5.6-6.3-1.3c1.5-2,3.8-4.2,6.3-4.7c1.7,1.6,2.5,1,2.8-1.1l-0.2,0.2c-5.2-7.6-20.6,13.3-7.7,13.3l-0.3,0.3
				C133.6,179.2,139.7,175.5,137.7,171.1z"/>
			<path class="st14" d="M150.1,169.8c-3.4-1.8-2.2,4.5-3.9,6c-2.9,4.2-3.6,1.6-2.1-1.9c0.1-0.9,1.5-3.4-0.1-3.7
				c-0.6-0.1-1.3-0.3-1.7,0.4c-0.6,2.1-1.4,4.4-1.6,6.6c-0.1,3.9,4.7,4.4,6.3,1.2c-0.4,1.9,2,2.9,2.6,0.9c0.2-1.7-0.2-3.4,0.3-5.1
				C150.2,172.8,151.1,171,150.1,169.8z"/>
			<path class="st14" d="M157.3,170.8c-3.1-1.2-2.8,5.2-3.8,7c-0.6,1.3-0.2,3.4,1.6,2.8C156,178.6,158.4,172.7,157.3,170.8z"/>
			<path class="st14" d="M158.6,166.6c-1.4-1.6-3.7,1.6-2,2.6C158.1,170,160.3,167.6,158.6,166.6z"/>
			<path class="st14" d="M171.4,164.2c-3.1-1.5-2.7,5-3.6,6.3c-7.7-1.2-11.1,14.3-1.1,8.3c-0.1,0.9,0.9,1.3,1.7,1
				c1.9-1.3,0.6-4.6,1.4-6.6C169.9,172.4,172.8,164.7,171.4,164.2z M167.4,172.8c-0.1,2.3-1.5,5.1-4.1,5
				C161.9,175.6,165.3,172.9,167.4,172.8z"/>
			<path class="st14" d="M182.4,176.8c-0.8-1.5-6.5,3.8-6.1,0c11.6-1,3.4-11.7-1.9-2.2c-0.8,0.2-1.3,1.6-0.6,2.1
				C172.4,182,182.9,181.2,182.4,176.8z M177.4,174.2c0.5-0.5,1.4-1.6,2.1-1.2C179.3,173.9,178.2,174.1,177.4,174.2z"/>
		</g>
	</g>
	<g>
		<path class="st20" d="M468.3,144.6c14.1-3.7,28.6-6.3,42.6-10.4c4-1.2,7.7-2.3,11.7-0.7c6.4-1.4,18.3,37.7,15.7,40.7
			c-5.7,35.4-85.5,16.8-101.1,31.4c-9.7,11.1-1.4,33.1-4.3,33.1c-3.1,0-2.7-24.2-15.8-29.9c-9.4-4.2-17.4,4.9-25-0.2
			c-4.6-3.1-5.5-10.1-7.4-24.1c-1.8-13.3-2.7-19.9-0.8-23.2C382.6,152.4,450.5,151.1,468.3,144.6z"/>
		<g>
			<path class="st21" d="M432.9,165.9c-3.6-1.1-7.3,1.9-10.8,2.9c-4.8-3.1-3.7,9.9-4.6,12.5c-1.2,0.9-1.6,2.7-0.3,3.7
				c0.3,2-0.9,6,1.6,6.8c0.7,0.1,1.7-0.4,1.6-1.3c0,0,0.4-6.6,0.4-6.6c2.6-1.8,5.5-3.4,8.7-3.8c3.8-5.3-6.3-2.4-8.3-0.9
				c0.2-1.9,0.4-4.3,0.9-6.1C424.1,170.5,435.1,169.6,432.9,165.9z"/>
			<path class="st21" d="M466.4,168c-3.2-21.4-21.9,7.9-17.2,16.7c4.8,3.9,2.4-6.2,4.1-8.4c3.2,0.4,6.1-2.4,9.3-2.8
				c0.5,2.7-3.8,11.7,1.9,9.6C466.5,178.6,466.3,173,466.4,168z M462.6,169.6c-2.4,0.9-5.2,1.9-7.8,2.3
				C456.5,167.1,462.8,159.5,462.6,169.6z"/>
			<path class="st21" d="M504.9,161.5c-0.6-4.6-3.5-6.9-8.1-7c-11.3,0.4-18,26.2-1.9,21.9c1.2,2.9,5.9,8.6,7.3,2.9
				c-0.9-1.8-3.2-2.4-3.8-4.6C502.2,171.4,505.8,166.7,504.9,161.5z M494.4,168.4c-2.5,0.4-1.4,3-0.8,4.5c-12.4,3,1.5-22.2,7.6-12.8
				c1.7,4.1-1.1,8.5-4.1,11.2C496.5,170.1,496.1,168.1,494.4,168.4z"/>
		</g>
	</g>
	<g>
		<g>
			<path class="st14" d="M782,285.8c-0.5,31.5-47.5,31.5-48,0C734.5,254.3,781.4,254.3,782,285.8z"/>
			<path class="st8" d="M767.5,284.8c-1.1-1.6-2.6-2.8-4.2-3.6c5.4-2.9,5-13.1-3-12c-6.3-0.7-10.8,8.9-3.9,11.8
				c-6.9,2.5-9.9,11.5-9.4,17.8l-0.1,0.2c0.1,0.1,0.2,0.4,0.2,0.5c7,1.1,14.3,0.7,21.4,0.8C772.1,299.7,769.7,287.5,767.5,284.8z
				 M760.7,281.6c7.5,1.7,8.2,10,7.8,17.8c-6.7,0.1-12.6,0-20.1-0.6C747.9,291.7,752.7,280.4,760.7,281.6z M759.2,270.2
				c5.8-0.8,9.1,5.6,4.5,8.7C756,284.1,750.5,272.8,759.2,270.2z"/>
		</g>
		<g>
			<path class="st22" d="M1050,349.4c-0.5,31.5-47.5,31.5-48,0C1002.5,317.9,1049.5,317.9,1050,349.4z"/>
			<path class="st8" d="M1035.6,348.4c-1.1-1.6-2.6-2.8-4.2-3.6c5.4-2.9,5-13.1-3-12c-6.3-0.7-10.8,8.9-3.9,11.8
				c-6.9,2.5-9.9,11.5-9.4,17.8l-0.1,0.2c0.1,0.1,0.2,0.4,0.2,0.5c7,1.1,14.3,0.7,21.4,0.8C1040.1,363.3,1037.8,351.1,1035.6,348.4z
				 M1028.8,345.2c7.5,1.7,8.2,10,7.8,17.8c-6.7,0.1-12.6,0-20.1-0.6C1015.9,355.4,1020.7,344,1028.8,345.2z M1027.2,333.8
				c5.8-0.8,9.1,5.6,4.5,8.7C1024,347.8,1018.6,336.4,1027.2,333.8z"/>
		</g>
		<path class="st14" d="M792.3,283.6c-2.9-29.3,10-20.4,31.3-21.6c2.2,0.1,12.9,0.4,34.3,0.9c25.1,0.6,37.7,0.9,43.2,0
			c7.3-1.2,13.7-0.9,26.4-0.4c11.2-1,15.6,10.1,15.9,19.8c1,8.9,1.5,13.6-1.3,17.2c0.3,6.6-45.9,3-52.8,2.6c-20,0-19.8,4.1-34.8,3.1
			c-20.3-2.3-29.3-7.2-30.8,10.6c-0.2,10.7,2.9,16.7-6.2,7.9c-6.7-8.1-1.9-16.5-7-20.7c-4.6-3.8-10.5,1.5-15-2.6
			C793.7,298.9,793.2,293.8,792.3,283.6z"/>
		<path class="st22" d="M992.3,347.9c2.9-29.3-10-20.4-31.3-21.6c-2.2,0.1-12.9,0.4-34.3,0.9c-25.1,0.6-37.7,0.9-43.2,0
			c-7.3-1.2-13.7-0.9-26.4-0.4c-11.2-1-15.6,10.1-15.9,19.8c-1,8.9-1.5,13.6,1.3,17.2c-0.3,6.6,45.9,3,52.8,2.6
			c20,0,19.8,4.1,34.8,3.1c20.3-2.3,29.3-7.2,30.8,10.6c0.2,10.7-2.9,16.7,6.2,7.9c6.7-8.1,1.9-16.5,7-20.7c4.6-3.8,10.5,1.5,15-2.6
			C990.8,363.2,991.3,358.1,992.3,347.9z"/>
		<path class="st23" d="M804,276.6c34.8-1,83.4,4.9,117.6-1.3"/>
		<path class="st23" d="M805.7,289c29.9-3.6,54.3,1.6,81.9-0.4"/>
		<path class="st23" d="M979.7,340.9c-34.8-1-83.4,4.9-117.6-1.3"/>
		<path class="st23" d="M977.9,353.2c-29.9-3.6-54.3,1.6-81.9-0.4"/>
	</g>
	<g>
		<path class="st24" d="M536.4,629.8c-57.3-46.7-130.8-32.7-196-6.7"/>
		<path class="st24" d="M536.7,602.6c-63.3-38.5-100.2-32.9-178.2-11.4"/>
		<path class="st24" d="M539.2,572.4c-61.3-51.1-90.4-21.3-160.5-15.5"/>
		<path class="st24" d="M571.1,631.4c54.5-43.8,121.3-34.7,184.6-10.8"/>
		<path class="st24" d="M570.8,604.1c64.3-37.2,87.7-32.7,167.8-15.6"/>
		<path class="st24" d="M568.2,574c57.7-48.2,87.3-24.6,155.3-15.5"/>
	</g>
</g>
<g class="st25">
	<g class="st26">
		<g>
			<path class="st18" d="M974.4,104.4c-2.3-0.5-4.8,0.3-6.2,2.2c-1.5,2-1.7,4.7-0.3,6.6c1.5,2,4.8,3,6.9,2.1c2.6-1.1,4.2-4.1,3.7-7
				C978,106.3,976.5,104.9,974.4,104.4z M976.3,113.3c-0.9,1-2,1.6-3.1,1.6c0,0,0,0,0,0c-1.6,0-3.2-0.7-4.2-1.8
				c-0.9-0.9-1.3-2.1-1.2-3.3c0.2-2.9,2.7-4.5,4.9-4.6c1.9-0.1,4.3,0.7,5,3.5C978,110.1,977.4,112,976.3,113.3z"/>
			<path class="st18" d="M981.2,107.7c0,0-0.1-0.1-0.2-0.1c-0.1-0.1-0.3-0.1-0.3-0.3c-0.1-0.1,0-0.3,0.1-0.6c0-0.1,0.1-0.2,0.1-0.3
				c0-0.6-0.1-1.3-0.4-1.9c-0.5-1-1.5-1.7-2.7-1.9c-0.1,0-0.2,0-0.3,0c-0.2,0-0.5,0-0.6-0.1c-0.1-0.1-0.2-0.2-0.2-0.4
				c0-0.1-0.1-0.2-0.1-0.3c-0.3-0.4-0.8-0.7-1.3-0.8c-1-0.2-2,0.1-3.1,1.1l-0.1,0.1l-0.1,0c-0.5-0.3-1.4-0.4-1.9-0.4
				c-1.2,0.1-1.9,0.7-2.5,1.7l0,0.1l-0.1,0c-0.2,0-0.4-0.1-0.5-0.1c-0.6,0-1.1,0.3-1.4,0.6c-0.7,0.8-1,2.1-0.6,3.2l0,0.1l0,0.1
				c-0.7,0.8-1.5,2.1-1.2,3.6c0.1,0.6,0.3,1.2,0.7,1.6c0.1,0.1,0.2,0.2,0.3,0.3c0.1,0.1,0.2,0.2,0.3,0.3c0.1,0.1,0.1,0.1,0.1,0.1
				c0.1,0.1,0.1,0.1,0.1,0.3c0,0.1,0,0.1,0,0.3c-0.2,1.8,1.1,3.6,2.7,3.9l0.2,0l-0.1,0.1c-1.2,2.9-2.2,5.6-3.3,8.2
				c-0.1,0.2,0.1,0.3,0.1,0.4c0.1,0.1,0.3,0.2,0.5,0.1c0.9-0.6,1.7-1.2,2.4-2l0.1-0.1l0.7,1.8c0.1,0.2,0.2,0.3,0.4,0.3
				c0.1,0,0.3-0.1,0.4-0.2c1.4-2.2,2.6-4.5,3.7-6.9l0-0.1l0.1,0c0.1,0,0.2,0,0.3,0l0.1,0l0,0.1c0.5,1.2,0.9,2.3,1.4,3.4
				c0.3,0.6,0.6,1.2,0.8,1.9c0,0.1,0.1,0.2,0.1,0.3c0.2,0.4,0.3,0.8,0.7,1c0.2,0.1,0.4,0.1,0.6,0.1c0.3-0.1,0.4-0.3,0.5-0.5
				c0.3-0.6,0.6-1.4,0.6-1.8c0-0.1,0-0.2,0-0.3c0-0.1,0-0.1,0-0.2c0.1,0,0.1,0,0.2,0c0,0,0.1,0,0.2,0.1c0.3,0.1,0.5,0.2,0.8,0.3
				c0.1,0.1,0.2,0.1,0.3,0.2c0.1,0,0.2,0,0.3,0c0.1-0.1,0.2-0.2,0.3-0.4c0.1-0.9-0.2-1.7-0.5-2.5c-0.1-0.2-0.1-0.3-0.2-0.5l-1.2-3.5
				l0.1,0c1-0.5,1.7-1.4,1.8-2.4c0.1-0.8,0.5-1.4,1-2c0.4-0.6,0.8-1.1,1-1.8C982.3,109.5,982,108.4,981.2,107.7z M972,119.4
				c-0.9,1.9-1.8,3.8-2.9,5.6l-0.1,0.2l-0.6-1.6c-0.1-0.2-0.2-0.3-0.4-0.3c-0.1,0-0.2,0-0.3,0.1c-0.4,0.5-0.9,1-1.3,1.4l-0.4,0.3
				l0.2-0.5c1-2.5,1.9-4.7,2.7-6.8l0-0.1l0.1,0c0.1,0,0.3-0.1,0.4-0.2l0.1,0l0.1,0.1c0.7,0.8,1.6,1.4,2.4,1.6l0.1,0L972,119.4z
				 M978.6,120.2c0.1,0.2,0.2,0.4,0.2,0.6c0.2,0.5,0.4,1.1,0.5,1.7l0,0.2l-0.2-0.1c-0.4-0.2-0.9-0.4-1.3-0.2
				c-0.5,0.2-0.7,1.1-0.8,1.7c0,0.2-0.1,0.4-0.1,0.5l-0.1,0.5l-0.1-0.3c-0.1-0.1-0.1-0.2-0.2-0.4c-0.3-0.6-0.5-1.1-0.8-1.7
				c-0.5-1.1-1-2.3-1.5-3.6l0-0.1l0.1-0.1c0.3-0.1,0.6-0.3,0.8-0.6c0.1-0.1,0.3-0.3,0.4-0.5c0.2-0.3,0.5-0.6,0.9-0.7
				c0.3-0.1,0.5-0.1,0.7-0.1l0.3,0L978.6,120.2z M981.3,110.5c-0.1,0.7-0.6,1.2-1,1.6c-0.4,0.4-0.8,0.9-0.9,1.4
				c0,0.2-0.1,0.4-0.1,0.6c-0.1,0.6-0.1,1.1-0.7,1.6c-0.6,0.5-1.3,0.6-1.9,0.6c-0.1,0-0.2,0-0.4,0l-0.1,0c-0.4,0-0.6,0.1-0.9,0.4
				c-0.1,0.2-0.2,0.3-0.3,0.5c-0.2,0.3-0.3,0.6-0.7,0.8c-0.5,0.3-1,0.5-1.4,0.5c-1.2,0-2.2-0.8-3-1.8c-0.1-0.2-0.4-0.3-0.6-0.2
				c-0.5,0.3-1.1,0.4-1.7,0.3c-0.6-0.2-1.1-0.5-1.4-1.1c-0.2-0.4-0.4-1-0.4-1.6c0-0.1,0-0.3,0-0.4c0-0.2,0.1-0.5,0-0.7
				c-0.1-0.2-0.1-0.3-0.3-0.4l-0.2-0.2c-0.4-0.4-0.7-0.7-0.9-1.3c-0.5-1.5,0.5-2.8,1.1-3.5c0.2-0.2,0.1-0.4,0.1-0.5
				c-0.3-0.7-0.2-2,0.4-2.6c0.2-0.2,0.7-0.5,1.3-0.2c0.2,0.1,0.4,0.1,0.6-0.1c0.5-0.9,0.9-1.6,2.2-1.6c0.3,0,0.5,0.1,0.8,0.2
				c0.1,0,0.2,0.1,0.3,0.1c0.1,0,0.2,0.1,0.2,0.1c0,0,0,0-0.1,0c0,0,0,0,0,0.1c0,0,0,0,0,0l0.2-0.1c0,0,0,0,0,0
				c0.1,0.2,0.3,0.2,0.4,0.2c0.1,0,0.2-0.1,0.3-0.1c0.7-0.6,1.4-1.2,2.2-1.2c0.8,0,1.1,0.4,1.5,0.9c0,0.1,0.1,0.1,0.2,0.2
				c0.3,0.5,0.7,0.5,1.2,0.5c0.3,0,0.7,0.1,1,0.2c0.8,0.3,1.3,1,1.5,1.8c0.1,0.4,0,0.7-0.1,1.1c-0.1,0.3-0.1,0.6-0.1,0.9
				c0.1,0.2,0.2,0.3,0.4,0.5c0.1,0,0.1,0.1,0.2,0.1C981.2,108.9,981.5,109.6,981.3,110.5z"/>
			<path class="st18" d="M974.3,108.8c-0.2,0.1-0.4,0.2-0.7,0.3l-0.1,0l-0.1-0.1c-0.2-0.4-0.4-0.7-0.6-1c-0.1-0.1-0.3-0.2-0.4-0.2
				c-0.2,0-0.3,0.1-0.3,0.3l-0.4,1.4l-0.1,0c-0.4,0-0.8,0-1.3,0c0,0,0,0,0,0c-0.2,0-0.3,0.2-0.4,0.3c0,0.2,0,0.4,0.3,0.5
				c0.4,0.1,0.7,0.2,1,0.4l0.1,0.1l0,0.1c-0.4,1.1-0.3,1.5-0.1,1.7c0.4,0.3,1-0.2,1.6-0.8l0.1-0.1l0.1,0c0.5,0.3,0.9,0.4,1.3,0.5
				c0.1,0,0.3,0,0.4-0.2c0.1-0.1,0.1-0.2,0.1-0.4c-0.2-0.4-0.4-0.9-0.6-1.4l0-0.1l0-0.1c0.3-0.4,0.5-0.6,0.7-0.9
				c0.1-0.2,0.1-0.3,0-0.4C974.8,108.8,974.5,108.7,974.3,108.8z"/>
		</g>
	</g>
	<g class="st26">
		<g>
			<path class="st18" d="M795.9,420.9c0-1.4,0-2.7,0-4.3c0-1-0.1-1.8-0.1-2.7c0-0.6-0.1-0.8-0.1-0.9c0-0.1,0-0.2,0-0.5l0-0.3
				c0-0.8-0.1-1.9-0.4-2.7c-0.1-0.4-0.4-0.7-0.7-0.9c-0.2-0.1-0.5-0.2-0.8-0.2c0,0-0.1,0-0.1,0c-0.3,0-0.5,0-0.8-0.1l-0.1,0
				c-0.4-0.1-0.8-0.1-1.2-0.1l-0.6-0.1l-4.4-0.4c-1.6-0.1-3.4-0.3-3.5-0.3c-2-0.1-3.3-0.1-4.3-0.1c-1.1,0-1.8,0-2.6-0.1
				c-0.3,0-0.8-0.1-2.1-0.1c-0.4,0-0.9,0-1.4,0.2c-0.4,0.2-0.8,0.5-1.1,0.9c-0.2,0.3-0.3,0.5-0.4,0.8c-0.1,0.4-0.2,0.7-0.3,1.1
				c-0.1,1.1-0.1,2.2-0.1,2.4c0,0.4,0,0.6-0.1,1c-0.1,0.4-0.1,0.9-0.2,2c-0.2,1.8-0.3,3.3-0.3,3.8l-0.1,3.7c0,0.2,0,0.4,0,0.6
				c0,0.2,0,0.4,0,0.6c-0.1,0.6-0.1,1.1,0.1,1.7c0.1,0.4,0.3,0.7,0.5,1c0.5,0.4,1.1,0.4,1.4,0.4c0.5,0,1,0,1.5,0.1
				c0.5,0.1,1,0.1,1.4,0.1c0.1,0,0.2,0,0.2,0c0.4,0,0.7,0,1,0c0.4,0,0.9,0.1,2.1,0.1c1,0,1.6,0,2.5,0l0.1,0c0.5,0,1.2,0,2.1,0l6.9,0
				c0,0,1.3,0,2.8-0.2c0.4,0,0.6-0.1,0.7-0.1c0.1,0,0.2,0,0.4-0.1l0.4,0c0.5,0,0.9-0.1,1.2-0.4c0.3-0.3,0.4-0.6,0.5-0.9
				c0.1-0.4,0.2-0.8,0.1-1.2l0,0l0,0C795.8,424.6,795.9,423.9,795.9,420.9z M794.4,426.2c-0.1,0-0.2,0-0.5,0.1l-0.4,0
				c-0.3,0-0.4,0.1-0.5,0.1c-0.1,0-0.2,0-0.6,0.1c-1.4,0.1-2.6,0.2-2.6,0.2l-6.9,0c-1,0-1.7,0-2.3,0c-0.4,0-0.7,0-1,0
				c-0.4,0-0.9,0-1.5,0c-1.1,0-1.6-0.1-2-0.1c-0.4,0-0.6-0.1-1.3-0.1h-0.1c-0.4,0-0.8-0.1-1.3-0.1c-0.5-0.1-1.1-0.1-1.7-0.1l-0.1,0
				c-0.2,0-0.3,0-0.4-0.1c-0.1-0.1-0.1-0.2-0.2-0.4c-0.1-0.4-0.1-0.8,0-1.3l0-0.1c0-0.2,0-0.3,0-0.5c0-0.2,0-0.4,0-0.6l0.1-3.7
				c0-0.6,0.1-2,0.3-3.8c0.1-1,0.2-1.6,0.2-1.9c0.1-0.5,0.1-0.7,0.1-1.2c0,0,0-1.2,0.1-2.3c0-0.3,0.1-0.6,0.2-0.9
				c0.1-0.3,0.1-0.4,0.2-0.5c0.1-0.2,0.3-0.4,0.6-0.5c0.3-0.1,0.6-0.1,0.9-0.1c1.2,0,1.7,0.1,1.9,0.1c0.9,0.1,1.7,0.1,2.8,0.1
				c1.1,0,2.3,0,4.3,0.1c0.1,0,1.2,0.1,3.5,0.3l4.4,0.4c0.6,0.1,0.7,0.1,0.7,0.1c0.3,0,0.6,0,1,0.1l0.1,0c0.4,0.1,0.8,0.1,1.2,0.1
				l0.1,0l0.1,0.1c0.1,0.1,0.1,0.1,0.1,0.3c0.2,0.7,0.3,1.7,0.3,2.4l0,0.3c0,0.3,0,0.4,0,0.6c0,0.2,0,0.4,0.1,0.9
				c0.1,0.8,0.1,1.6,0.1,2.6c0,1.6,0,2.8,0,4.3c0,2.8-0.1,3.5-0.1,3.7c0,0.1,0,0.2,0,0.3c0,0.3,0,0.6-0.1,0.7l0.6,0.2L794.4,426.2z"
				/>
			<path class="st18" d="M783.8,421.4c0.4-0.2,1-0.4,1.9-1c0.2-0.2,0.4-0.3,0.5-0.4c0.2-0.2,0.4-0.3,0.7-0.4l0.3-0.1
				c0.3-0.1,0.6-0.2,0.9-0.5c0.5-0.3,0.9-0.7,0.8-1.3c-0.1-0.3-0.3-0.5-0.7-0.8c-0.4-0.2-0.6-0.3-0.8-0.4c-0.3-0.1-0.4-0.2-0.8-0.5
				c-0.2-0.1-0.4-0.3-0.7-0.5c-1.1-0.7-3.2-2-4.4-2.3l-0.2-0.1c-0.1,0-0.2-0.1-0.4-0.1l-0.3-0.1c-0.2-0.1-0.3-0.1-0.5-0.1
				c-0.1,0-0.3,0-0.4,0.1c-0.4,0.3-0.3,0.7-0.3,1.2l0,0.1c0.1,0.3,0.1,0.6,0,1c0,0.2,0,0.4,0,0.6c0,0.2,0,0.8,0,1.8l0,1
				c0,0.5,0,0.8,0,1.2c0,0.5,0,0.7,0,0.8c0,0.1,0,0.1,0,0.2l0,0.1c0,0.3,0,0.6,0.1,1c0.1,0.2,0.2,0.6,0.6,0.8c0.4,0.2,0.9,0.1,1.2,0
				c0.8-0.3,1.3-0.7,1.3-0.7C783.1,421.6,783.4,421.5,783.8,421.4z M781,421.7l-0.3,0.1l0-0.4c0-0.1,0-0.2,0-0.4l0-0.2
				c0-0.2,0-0.2,0-0.4c0-0.1,0-0.3,0-0.8c0-0.4,0-0.6,0-1.2l0-0.8c0-1.2,0-1.9,0-2.2c0-0.2,0-0.4,0-0.5c0-0.2,0-0.5,0-0.7l0-0.4
				l0.6,0.1c1.1,0.3,3.3,1.7,4.1,2.2c0.2,0.1,0.4,0.3,0.6,0.4l0.1,0.1c0.4,0.3,0.6,0.4,1,0.6c0.1,0.1,0.2,0.1,0.4,0.2l0.4,0.2
				l-0.3,0.2c-0.2,0.2-0.4,0.2-0.6,0.3c-0.1,0.1-0.2,0.1-0.3,0.1c-0.4,0.2-0.6,0.4-0.9,0.6c-0.1,0.1-0.3,0.2-0.5,0.4
				c-0.8,0.6-1.2,0.7-1.6,0.9c-0.4,0.2-0.9,0.3-1.4,0.8C781.8,421.2,781.5,421.5,781,421.7z"/>
		</g>
	</g>
	<g class="st26">
		<g>
			<path class="st18" d="M407.8,713.1c0-1.4,0-2.7,0-4.3c0-1-0.1-1.8-0.1-2.7c0-0.6-0.1-0.8-0.1-0.9c0-0.1,0-0.2,0-0.5l0-0.3
				c0-0.8-0.1-1.9-0.4-2.7c-0.1-0.4-0.4-0.7-0.7-0.9c-0.2-0.1-0.5-0.2-0.8-0.2c0,0-0.1,0-0.1,0c-0.3,0-0.5,0-0.8-0.1l-0.1,0
				c-0.4-0.1-0.8-0.1-1.2-0.1l-0.6-0.1l-4.4-0.4c-1.6-0.1-3.4-0.3-3.5-0.3c-2-0.1-3.3-0.1-4.3-0.1c-1.1,0-1.8,0-2.6-0.1
				c-0.3,0-0.8-0.1-2.1-0.1c-0.4,0-0.9,0-1.4,0.2c-0.4,0.2-0.8,0.5-1.1,0.9c-0.2,0.3-0.3,0.5-0.4,0.8c-0.1,0.4-0.2,0.7-0.3,1.1
				c-0.1,1.1-0.1,2.2-0.1,2.4c0,0.4,0,0.6-0.1,1c-0.1,0.4-0.1,0.9-0.2,2c-0.2,1.8-0.3,3.3-0.3,3.8l-0.1,3.7c0,0.2,0,0.4,0,0.6
				c0,0.2,0,0.4,0,0.6c-0.1,0.6-0.1,1.1,0.1,1.7c0.1,0.4,0.3,0.7,0.5,1c0.5,0.4,1.1,0.4,1.4,0.4c0.5,0,1,0,1.5,0.1
				c0.5,0.1,1,0.1,1.4,0.1c0.1,0,0.2,0,0.2,0c0.4,0,0.7,0,1,0c0.4,0,0.9,0.1,2.1,0.1c1,0,1.6,0,2.5,0l0.1,0c0.5,0,1.2,0,2.1,0l6.9,0
				c0,0,1.3,0,2.8-0.2c0.4,0,0.6-0.1,0.7-0.1c0.1,0,0.2,0,0.4-0.1l0.4,0c0.5,0,0.9-0.1,1.2-0.4c0.3-0.3,0.4-0.6,0.5-0.9
				c0.1-0.4,0.2-0.8,0.1-1.2l0,0l0,0C407.7,716.7,407.8,716.1,407.8,713.1z M406.3,718.4c-0.1,0-0.2,0-0.5,0.1l-0.4,0
				c-0.3,0-0.4,0.1-0.5,0.1c-0.1,0-0.2,0-0.6,0.1c-1.4,0.1-2.6,0.2-2.6,0.2l-6.9,0c-1,0-1.7,0-2.3,0c-0.4,0-0.7,0-1,0
				c-0.4,0-0.9,0-1.5,0c-1.1,0-1.6-0.1-2-0.1c-0.4,0-0.6-0.1-1.3-0.1h-0.1c-0.4,0-0.8-0.1-1.3-0.1c-0.5-0.1-1.1-0.1-1.7-0.1l-0.1,0
				c-0.2,0-0.3,0-0.4-0.1c-0.1-0.1-0.1-0.2-0.2-0.4c-0.1-0.4-0.1-0.8,0-1.3l0-0.1c0-0.2,0-0.3,0-0.5c0-0.2,0-0.4,0-0.6l0.1-3.7
				c0-0.6,0.1-2,0.3-3.8c0.1-1,0.2-1.6,0.2-1.9c0.1-0.5,0.1-0.7,0.1-1.2c0,0,0-1.2,0.1-2.3c0-0.3,0.1-0.6,0.2-0.9
				c0.1-0.3,0.1-0.4,0.2-0.5c0.1-0.2,0.3-0.4,0.6-0.5c0.3-0.1,0.6-0.1,0.9-0.1c1.2,0,1.7,0.1,1.9,0.1c0.9,0.1,1.7,0.1,2.8,0.1
				c1.1,0,2.3,0,4.3,0.1c0.1,0,1.2,0.1,3.5,0.3l4.4,0.4c0.6,0.1,0.7,0.1,0.7,0.1c0.3,0,0.6,0,1,0.1l0.1,0c0.4,0.1,0.8,0.1,1.2,0.1
				l0.1,0l0.1,0.1c0.1,0.1,0.1,0.1,0.1,0.3c0.2,0.7,0.3,1.7,0.3,2.4l0,0.3c0,0.3,0,0.4,0,0.6c0,0.2,0,0.4,0.1,0.9
				c0.1,0.8,0.1,1.6,0.1,2.6c0,1.6,0,2.8,0,4.3c0,2.8-0.1,3.5-0.1,3.7c0,0.1,0,0.2,0,0.3c0,0.3,0,0.6-0.1,0.7l0.6,0.2L406.3,718.4z"
				/>
			<path class="st18" d="M395.7,713.6c0.4-0.2,1-0.4,1.9-1c0.2-0.2,0.4-0.3,0.5-0.4c0.2-0.2,0.4-0.3,0.7-0.4l0.3-0.1
				c0.3-0.1,0.6-0.2,0.9-0.5c0.5-0.3,0.9-0.7,0.8-1.3c-0.1-0.3-0.3-0.5-0.7-0.8c-0.4-0.2-0.6-0.3-0.8-0.4c-0.3-0.1-0.4-0.2-0.8-0.5
				c-0.2-0.1-0.4-0.3-0.7-0.5c-1.1-0.7-3.2-2-4.4-2.3l-0.2-0.1c-0.1,0-0.2-0.1-0.4-0.1l-0.3-0.1c-0.2-0.1-0.3-0.1-0.5-0.1
				c-0.1,0-0.3,0-0.4,0.1c-0.4,0.3-0.3,0.7-0.3,1.2l0,0.1c0.1,0.3,0.1,0.6,0,1c0,0.2,0,0.4,0,0.6c0,0.2,0,0.8,0,1.8l0,1
				c0,0.5,0,0.8,0,1.2c0,0.5,0,0.7,0,0.8c0,0.1,0,0.1,0,0.2l0,0.1c0,0.3,0,0.6,0.1,1c0.1,0.2,0.2,0.6,0.6,0.8c0.4,0.2,0.9,0.1,1.2,0
				c0.8-0.3,1.3-0.7,1.3-0.7C395,713.8,395.3,713.7,395.7,713.6z M392.9,713.9l-0.3,0.1l0-0.4c0-0.1,0-0.2,0-0.4l0-0.2
				c0-0.2,0-0.2,0-0.4c0-0.1,0-0.3,0-0.8c0-0.4,0-0.6,0-1.2l0-0.8c0-1.2,0-1.9,0-2.2c0-0.2,0-0.4,0-0.5c0-0.2,0-0.5,0-0.7l0-0.4
				l0.6,0.1c1.1,0.3,3.3,1.7,4.1,2.2c0.2,0.1,0.4,0.3,0.6,0.4l0.1,0.1c0.4,0.3,0.6,0.4,1,0.6c0.1,0.1,0.2,0.1,0.4,0.2l0.4,0.2
				l-0.3,0.2c-0.2,0.2-0.4,0.2-0.6,0.3c-0.1,0.1-0.2,0.1-0.3,0.1c-0.4,0.2-0.6,0.4-0.9,0.6c-0.1,0.1-0.3,0.2-0.5,0.4
				c-0.8,0.6-1.2,0.7-1.6,0.9c-0.4,0.2-0.9,0.3-1.4,0.8C393.7,713.4,393.4,713.7,392.9,713.9z"/>
		</g>
	</g>
	<g class="st26">
		<g>
			<path class="st18" d="M277.8,241c1.8,0,3.6,0,5.4-0.1c1.2,0,2.3,0,3.5-0.1c1.1,0,2.3,0,3.4,0c1.7,0,3.4,0.1,5.1,0l0.3,0
				c1.1-0.1,1.7-0.1,1.8-1.2c0.1-1,0.1-2,0.1-2.9l0-0.5c0-2.5,0-5.1,0-7.6c0-2.1,0-4.3,0-6.5c0-1.5,0-3.3-0.1-5c0-0.1,0-0.2,0-0.3
				c0-0.6,0-1.5-0.4-1.8c-0.1-0.1-0.2-0.1-0.3-0.1c0,0-0.1,0-0.1,0c-1.5,0-3,0.1-4.4,0.1c-2.5,0.1-5,0.1-7.5,0.1c-0.1,0-0.3,0-0.4,0
				c-0.5,0-0.9,0-1.3,0.3c-0.3,0.3-0.7,0.6-1,0.9c-0.4,0.3-0.7,0.7-1.1,1c-0.8,0.7-1.7,1.3-2.4,1.8l-0.1,0.1
				c-0.4,0.3-0.6,0.4-0.6,0.9c-0.1,1.2-0.1,2.5-0.1,3.7c0,0.6,0,1.2,0,1.8c0,0.8-0.1,1.5-0.1,2.3c0,0.8-0.1,1.7-0.1,2.6
				c0,1.5,0,3.1,0,4.6c0,1.2,0,2.3,0,3.4l0,0.2c0,0.3,0,0.7,0,1c0,0,0,0.1,0,0.1c0,0,0,0.1,0,0.1l0,0.1c0,0,0,0.1,0,0.1
				c0,0.1,0,0.1,0,0.1c0,0.1,0,0.1,0,0.2c0,0.1,0,0.2,0.1,0.3C277.6,240.9,277.7,241,277.8,241z M279.5,219.6
				c0.8-0.6,1.6-1.2,2.4-1.8c0.2-0.1,0.4-0.3,0.6-0.5c0.1-0.1,0.3-0.3,0.4-0.4l0.2-0.2l0,0.3c0,0.1,0,0.3,0,0.4c0,0.1,0,0.3,0,0.4
				c0,0.4,0,0.9-0.1,1.3l0,0.1c-0.1,1.2-0.2,1.4-0.3,1.5c0,0-0.1,0.1-0.2,0.1c-0.2,0-0.6-0.1-1.2-0.4c-0.2-0.1-0.3-0.1-0.4-0.2
				c-0.4-0.1-0.8-0.2-1.2-0.3l-0.3-0.1L279.5,219.6z M278.5,233.1c0-2.1,0.1-4.1,0.1-6.1c0.1-2,0.1-2.8,0.1-4.9c0,0,0.1-0.7,0-0.9
				c0-0.6,0.5-0.6,0.5-0.6c0.9,0.2,1.4,0.5,2.3,0.8c0.1,0,0.2,0.1,0.3,0.1c0.5,0.2,1.1,0.5,1.5,0.2c0.4-0.3,0.5-1.1,0.6-1.7
				c0-0.1,0-0.3,0-0.4c0.1-0.5,0-1.1,0.1-1.6c0.1-0.6,0.1-0.5,0.1-1.1c0,0,0-0.6,0.4-0.8c0.1,0,0.4,0,0.4,0c0.4-0.1,0.3,0,0.8,0
				c0.3,0,0.5,0,0.7,0c2,0,4-0.1,5.9-0.1c1.3,0,0.7,0,2-0.1c0.1,0,0.2,0,0.3,0c0.1,0,0.2,0,0.3,0h0.1h0.2c0,0,0.2,0,0.2,0l0.1,0h0.2
				c0,0,0.5,0,0.5,0c0,0,0.3,0,0.3,0.2c0,0.1,0.1,0.4,0.1,0.4c0,0.1,0,0.2,0,0.3c0,0.1,0,0.2,0,0.2c0,0.5,0,0.4,0,0.9l0,0
				c0,1.4,0,2.8,0,4.2c0,0.7,0,1.3,0,2c0,1,0,2,0,3c0,0.7,0,1.4,0,2c0,1.7,0,3.4,0,5.1c0,1.3,0,2.5,0,3.8l0,0.2c0,0.4,0,0.4,0,0.8
				c0,0.3,0,0.3,0,0.5c0,0.1-0.1,0.2-0.4,0.3c-0.1,0-0.2,0-0.3,0c-0.1,0-0.1,0-0.3,0c-0.8,0-1.6,0-2.5,0c-0.7,0-1.3,0-2,0
				c-1.3,0-2.7-0.1-4,0c-1.2,0-2.5,0-3.7,0.1c-1.5,0-2.4,0.1-4,0.1c0,0-0.4,0-0.5,0c-0.2,0-0.3-0.2-0.3-0.2c0-0.3,0-0.6,0-0.9
				c0-0.2,0-0.4,0-0.5C278.5,236.6,278.5,235.1,278.5,233.1z"/>
			<path class="st18" d="M281.8,224.1c0,0.2,0.2,0.4,0.8,0.4c0,0,0,0,0,0c3.4-0.1,6.8-0.2,10.2-0.3c0.6,0,0.9-0.3,0.9-0.6
				c0-0.2-0.2-0.4-0.8-0.4c0,0-0.1,0-0.1,0c-3.4,0.2-6.9,0.3-10.3,0.3C282.1,223.5,281.8,223.8,281.8,224.1z"/>
			<path class="st18" d="M281.8,231.7c0,0.2,0.3,0.5,0.9,0.5c0,0,0,0,0,0c3.4,0,6.8,0,10.2,0.2c0.3,0,0.6,0,0.7-0.1
				c0.2-0.1,0.2-0.3,0.1-0.5c-0.1-0.1-0.3-0.3-0.8-0.3c-3.3-0.2-6.7-0.3-10.1-0.2C282.1,231.2,281.8,231.4,281.8,231.7z"/>
			<path class="st18" d="M288.3,236.2c1.6,0.1,3.3,0.1,4.9,0c0.7-0.1,0.7-0.4,0.7-0.5c-0.1-0.2-0.5-0.5-1.2-0.5
				c-1.7,0.1-3.3,0.1-5,0c-1.7-0.1-3.4-0.1-5.1,0c-0.3,0-0.5,0.1-0.6,0.2c-0.1,0.2,0,0.4,0.2,0.5c0.1,0.1,0.4,0.2,0.9,0.2
				c0.8-0.1,1.6-0.1,2.4-0.1C286.4,236.1,287.4,236.1,288.3,236.2z"/>
			<path class="st18" d="M288.3,228.3c1.6,0.1,3.3,0.1,4.9,0c0.7-0.1,0.7-0.4,0.7-0.5c-0.1-0.2-0.5-0.5-1.2-0.5
				c-1.7,0.1-3.3,0.1-5,0c-1.7-0.1-3.4-0.1-5.1,0c-0.3,0-0.5,0.1-0.6,0.2c-0.1,0.2,0,0.4,0.2,0.5c0.1,0.1,0.4,0.2,0.9,0.2
				c0.8-0.1,1.6-0.1,2.4-0.1C286.4,228.2,287.4,228.2,288.3,228.3z"/>
		</g>
	</g>
	<g class="st26">
		<g>
			<g>
				<path class="st18" d="M158.4,63.3c-1,0-2-0.1-2.9-0.4c-1.9-0.5-3.5-1.7-4.9-3.3c-1.7-2.1-2.5-4.8-2.3-7.8
					c0.1-1.3,0.7-4.7,3.5-7.2c0.4-0.4,1.5-1.3,3.2-1.8l0,0c2.4-0.7,4.8-0.4,5.2-0.4c2.1,0.3,4,1.2,5.3,2.5c1.6,1.5,3.4,4.3,3,9.2
					c-0.1,0.8-1,4.4-3.2,6.5C163.5,62.4,161,63.3,158.4,63.3z M155.3,43.8c-1.5,0.5-2.5,1.3-2.9,1.6c-2.5,2.2-3.1,5.3-3.2,6.5
					c-0.2,2.7,0.5,5.2,2.1,7.1c1.2,1.5,2.7,2.5,4.4,3c3.2,0.9,6.7,0.1,9.1-2.1c1.9-1.8,2.8-5.3,2.9-5.8c0.4-4.5-1.3-7-2.7-8.4
					c-1.2-1.2-2.9-1.9-4.8-2.2C159,43.3,157,43.3,155.3,43.8L155.3,43.8z"/>
			</g>
			<g>
				<path class="st18" d="M157.5,43.2c-0.2,0-0.4-0.2-0.5-0.4c-0.1-0.6-0.1-1.2,0-1.7c0-0.3,0.1-0.5,0.1-0.7c0-0.2,0.1-0.4,0.1-0.5
					c-0.1,0-0.4,0-0.8,0.1c-0.7,0.1-1.1-0.1-1.3-0.3c-0.2-0.2-0.4-0.5-0.4-0.8c0-0.4,0.1-0.8,0.3-1c0.2-0.3,0.8-0.5,1.3-0.5
					c1.3,0,1.6,0,2.9,0c0.3,0,0.8,0,1.3,0.1c0.3,0,1.1,0.1,1.4,0.8c0.2,0.4,0.2,1.2-0.4,1.5c-0.6,0.3-1.2,0.3-1.7,0.2
					c-0.1,0-0.2,0-0.2,0c-0.1,0.7-0.1,1-0.1,1.2c0,0.3,0,1.1,0,1.6c0,0.3-0.2,0.5-0.5,0.5c-0.3,0-0.5-0.2-0.5-0.5c0-0.5,0-1.3,0-1.6
					c0-0.4,0-0.8,0.1-1.6c0-0.1,0.1-0.3,0.2-0.4c0.4-0.3,1.1-0.2,1.1-0.2c0.4,0.1,0.8,0.1,1.1-0.1c0.1-0.1,0-0.3,0-0.3
					c-0.1-0.2-0.5-0.3-0.6-0.3c-0.4-0.1-0.9-0.1-1.1-0.1c-1.5,0-1.7,0-3,0c-0.2,0-0.5,0.2-0.6,0.2c0,0-0.1,0.2-0.1,0.3
					c0,0.1,0,0.1,0,0.1c0.1,0,0.2,0.1,0.6,0.1c0.9-0.2,1.4-0.1,1.6,0.1c0.4,0.3,0.3,0.8,0.2,1.4c0,0.2-0.1,0.4-0.1,0.6
					c0,0.5,0,1,0,1.6C158,43,157.8,43.2,157.5,43.2C157.5,43.2,157.5,43.2,157.5,43.2z"/>
			</g>
			<g>
				<path class="st18" d="M163.4,44.4c-0.1,0-0.2,0-0.2-0.1c-0.2-0.1-0.3-0.4-0.2-0.6l1.5-2.4c0.1-0.2,0.4-0.3,0.6-0.2
					c0.2,0.1,0.3,0.4,0.2,0.6l-1.5,2.4C163.7,44.3,163.5,44.4,163.4,44.4z"/>
			</g>
			<g>
				<path class="st18" d="M166,42.6c-0.1,0-0.2,0-0.2-0.1l-2.2-1.3c-0.2-0.1-0.3-0.4-0.2-0.6s0.4-0.3,0.6-0.2l2.2,1.3
					c0.2,0.1,0.3,0.4,0.2,0.6C166.3,42.5,166.1,42.6,166,42.6z"/>
			</g>
			<g>
				<path class="st18" d="M166.3,53.4c-0.3,0-0.5-0.2-0.5-0.5c0-0.3,0.2-0.5,0.5-0.5l1.8,0c0.3,0,0.5,0.2,0.5,0.5
					c0,0.3-0.2,0.5-0.5,0.5L166.3,53.4C166.3,53.4,166.3,53.4,166.3,53.4z"/>
			</g>
			<g>
				<path class="st18" d="M158.4,45.3C158.4,45.3,158.4,45.3,158.4,45.3c-0.3,0-0.5-0.2-0.5-0.5l0-1.8c0-0.3,0.2-0.5,0.5-0.5
					c0.3,0,0.5,0.2,0.5,0.5l0,1.8C158.8,45.1,158.6,45.3,158.4,45.3z"/>
			</g>
			<g>
				<path class="st18" d="M158.4,63.2C158.4,63.2,158.4,63.2,158.4,63.2c-0.3,0-0.5-0.2-0.5-0.5l0-1.8c0-0.3,0.2-0.5,0.5-0.5
					c0.3,0,0.5,0.2,0.5,0.5l0,1.8C158.8,63,158.6,63.2,158.4,63.2z"/>
			</g>
			<g>
				<path class="st18" d="M148.8,53.4c-0.3,0-0.5-0.2-0.5-0.5c0-0.3,0.2-0.5,0.5-0.5l1.8,0c0.3,0,0.5,0.2,0.5,0.5
					c0,0.3-0.2,0.5-0.5,0.5L148.8,53.4C148.8,53.4,148.8,53.4,148.8,53.4z"/>
			</g>
			<g>
				<path class="st18" d="M152.6,44.9c-0.2,0-0.3-0.1-0.4-0.2l-1.4-2.5c-0.1-0.2,0-0.5,0.2-0.6c0.2-0.1,0.5,0,0.6,0.2l1.4,2.5
					c0.1,0.2,0,0.5-0.2,0.6C152.7,44.9,152.6,44.9,152.6,44.9z"/>
			</g>
			<g>
				<path class="st18" d="M150,43c-0.2,0-0.3-0.1-0.4-0.2c-0.1-0.2,0-0.5,0.2-0.6l2.2-1.2c0.2-0.1,0.5,0,0.6,0.2
					c0.1,0.2,0,0.5-0.2,0.6l-2.2,1.2C150.2,42.9,150.1,43,150,43z"/>
			</g>
			<g>
				<path class="st18" d="M162.8,46.4c-0.1,0-0.2,0-0.3-0.1c-0.2-0.1-0.3-0.4-0.1-0.6l1-1.5c0.1-0.2,0.4-0.3,0.6-0.1
					c0.2,0.1,0.3,0.4,0.1,0.6l-1,1.5C163.1,46.4,163,46.4,162.8,46.4z"/>
			</g>
			<g>
				<path class="st18" d="M152.9,61.6c-0.1,0-0.2,0-0.3-0.1c-0.2-0.1-0.3-0.4-0.1-0.6l1-1.5c0.1-0.2,0.4-0.3,0.6-0.1
					c0.2,0.1,0.3,0.4,0.1,0.6l-1,1.5C153.2,61.5,153.1,61.6,152.9,61.6z"/>
			</g>
			<g>
				<path class="st18" d="M165.5,49.5c-0.2,0-0.3-0.1-0.4-0.2c-0.1-0.2,0-0.5,0.2-0.6l1.6-0.9c0.2-0.1,0.5,0,0.6,0.2
					c0.1,0.2,0,0.5-0.2,0.6l-1.6,0.9C165.7,49.5,165.6,49.5,165.5,49.5z"/>
			</g>
			<g>
				<path class="st18" d="M150,57.9c-0.2,0-0.3-0.1-0.4-0.2c-0.1-0.2,0-0.5,0.2-0.6l1.6-0.9c0.2-0.1,0.5,0,0.6,0.2
					c0.1,0.2,0,0.5-0.2,0.6l-1.6,0.9C150.2,57.9,150.1,57.9,150,57.9z"/>
			</g>
			<g>
				<path class="st18" d="M154.2,46.6c-0.2,0-0.3-0.1-0.4-0.3l-0.8-1.6c-0.1-0.2,0-0.5,0.2-0.6c0.2-0.1,0.5,0,0.6,0.2l0.8,1.6
					c0.1,0.2,0,0.5-0.2,0.6C154.4,46.5,154.3,46.6,154.2,46.6z"/>
			</g>
			<g>
				<path class="st18" d="M163.5,61.8c-0.2,0-0.3-0.1-0.4-0.3l-0.8-1.6c-0.1-0.2,0-0.5,0.2-0.6c0.2-0.1,0.5,0,0.6,0.2l0.8,1.6
					c0.1,0.2,0,0.5-0.2,0.6C163.6,61.8,163.5,61.8,163.5,61.8z"/>
			</g>
			<g>
				<path class="st18" d="M151.3,49.7c-0.1,0-0.2,0-0.3-0.1l-1.5-1c-0.2-0.1-0.3-0.4-0.1-0.6c0.1-0.2,0.4-0.3,0.6-0.1l1.5,1
					c0.2,0.1,0.3,0.4,0.1,0.6C151.6,49.6,151.5,49.7,151.3,49.7z"/>
			</g>
			<g>
				<path class="st18" d="M166.8,58c-0.1,0-0.2,0-0.3-0.1l-1.5-1c-0.2-0.1-0.3-0.4-0.1-0.6c0.1-0.2,0.4-0.3,0.6-0.1l1.5,1
					c0.2,0.1,0.3,0.4,0.1,0.6C167.1,57.9,166.9,58,166.8,58z"/>
			</g>
			<g>
				<path class="st18" d="M160.1,57.7c-0.2,0-0.4-0.1-0.4-0.3l-1.9-4.6c-0.1-0.2,0-0.4,0.1-0.5l4.9-4.8c0.2-0.2,0.5-0.2,0.7,0
					c0.2,0.2,0.2,0.5,0,0.7l-4.6,4.6l1.8,4.3c0.1,0.2,0,0.5-0.3,0.6C160.2,57.7,160.2,57.7,160.1,57.7z"/>
			</g>
		</g>
	</g>
	<g class="st26">
		<path class="st18" d="M692.9,731.3c-0.5-1.4-2.1-1.1-3.3-1.1c-1.8-0.1-3.7,0.1-5.5,0c-0.4-1.5-0.8-3.1-1.2-4.6
			c-0.4-1.3-1-2.8-2.5-3.1c-1.2-0.2-1.9,0.6-2.4,1.6c-0.8,2-1.2,4.1-2.1,6.1c-2,0-4.1,0-6.2,0.1c-0.9,0.1-2.2,0.1-2.6,1.1
			c-0.4,1.2,0.3,2,1.1,2.7c0.7,0.5,1.5,1,2.2,1.5c0.8,0.6,2,1.2,2.6,2c0.6,0.8-0.3,2.4-0.6,3.2c-0.3,0.9-0.7,1.8-0.9,2.8
			c-0.2,1.1-0.3,2.7,0.7,3.4c1.1,0.7,2.5-0.6,3.3-1.2c1.5-1.1,2.9-2.3,4.5-3.4c1.4,1.4,2.9,2.6,4.5,3.8c0.9,0.7,2.3,1.5,3.4,0.7
			c1-0.7,1-2.1,0.6-3.1c-0.6-1.9-1.2-3.8-1.8-5.7c1.6-1.1,3.1-2.3,4.7-3.5C692.6,733.8,693.5,732.7,692.9,731.3z M689.4,735.2
			c-1.1,0.8-2.1,1.7-3.3,2.5c-0.1,0.1-0.3,0.3-0.2,0.5c0.4,1.3,0.7,2.6,1.1,3.9c0.3,1,1.3,2.5,0.9,3.6c-1,2.6-6.4-2.9-7.5-3.9
			c-0.1-0.1-0.3-0.2-0.5-0.1c-1,0.6-1.9,1.3-2.9,2.1c-1,0.8-2.2,2-3.4,2.5c-0.5,0.2-1,0.1-1.4-0.4c-0.2-0.2-0.1-0.8-0.1-1.1
			c0-0.7,0.3-1.3,0.5-1.9c0.5-1.6,1.1-3.1,1.7-4.7c0-0.1,0-0.3-0.1-0.4c-0.9-0.8-1.9-1.5-2.8-2.2c-0.9-0.7-3-1.6-3.3-2.7
			c-0.7-1.9,2.4-1.5,3.5-1.5c1.5,0,3-0.1,4.5-0.1c0.2,0,0.3,0,0.4-0.2c0.5-1.1,1-2.3,1.4-3.5c0.4-1.1,0.8-4.4,2.5-3.9
			c1.6,0.4,1.8,2.8,2.2,4.2c0.3,1,0.5,2.1,0.8,3.1c0.1,0.2,0.2,0.3,0.4,0.3c1.1,0.1,2.1,0,3.2,0c1.2,0,2.8-0.2,4,0.1
			C694.3,732,690.3,734.5,689.4,735.2z"/>
	</g>
	<g class="st26">
		<g>
			<path class="st18" d="M379.3,466.4c-0.8,0-1.8-0.3-3.1-1.6c-1.7-1.7-1.4-3.5-1.3-4.1c0.1-0.6,0.7-2,1.9-3.7
				c2.2-3.3,3.2-4.4,3.8-5c0.3-0.3,0.5-0.6,0.8-0.8c0.4-0.4,0.8-0.8,1.2-1.3c0.1-0.1,0.3-0.3,0.4-0.4c0.3-0.3,0.6-0.7,0.9-0.8
				l0.4,0.8c-0.1,0.1-0.4,0.4-0.6,0.6c-0.2,0.2-0.3,0.4-0.5,0.5c-0.4,0.4-0.8,0.8-1.2,1.2c-0.2,0.3-0.5,0.5-0.8,0.8
				c-0.6,0.6-1.5,1.7-3.7,4.9c-1.1,1.7-1.7,2.9-1.7,3.3c-0.1,0.6-0.4,1.9,1,3.3c1.6,1.6,2.6,1.3,3.2,1.1c0.2-0.1,0.4-0.1,0.6-0.1
				c0.2,0.1,0.9,0.2,3.7-1.9c1-0.7,2.3-1.8,4.5-4.1c1.4-1.4,2.6-2.6,4-4.5c2.1-2.7,2.4-3.9,2.5-4.4c0.3-1.1,0.7-2.5,0-3.6
				c-0.8-1.2-2.5-1.3-2.6-1.3c-1.1,0-1.9,0.5-2.7,1l-0.5,0.3c-1,0.6-1.8,1.2-2.9,2.4c-2.1,2.3-2.3,2.6-3,3.7
				c-0.2,0.2-0.3,0.5-0.5,0.8c-1.1,1.5-1.6,2.8-1.4,3.7c0,0.2,0.3,1.4,1.2,1.9c0.9,0.4,2.1-0.2,2.7-0.6c0.7-0.4,1.5-1.3,2.4-2.6
				c0.8-1.1,1.5-2.4,2.1-3.7l0.9,0.4c-0.6,1.3-1.3,2.6-2.2,3.8c-1.5,2.2-2.4,2.7-2.7,2.9c-0.7,0.4-2.2,1.3-3.6,0.6
				c-1.3-0.6-1.7-2.3-1.7-2.6c-0.2-1.1,0.4-2.6,1.6-4.4c0.2-0.3,0.4-0.6,0.5-0.8c0.7-1.1,1-1.5,3.1-3.8c1.1-1.3,2.1-1.9,3.1-2.5
				l0.5-0.3c0.9-0.6,1.9-1.2,3.2-1.2c0.2,0,2.3,0.1,3.3,1.7c1,1.5,0.5,3.2,0.1,4.4c-0.3,0.9-0.8,2.2-2.7,4.7
				c-1.5,1.9-2.8,3.2-4.1,4.6c-2.3,2.3-3.6,3.4-4.6,4.1c-2.7,2.1-3.8,2.2-4.5,2c0,0-0.1,0-0.2,0.1
				C380.1,466.3,379.7,466.4,379.3,466.4z"/>
		</g>
	</g>
	<g class="st26">
		<g>
			<path class="st18" d="M879.1,714.2c0.4,0.7,0.9,1,1.6,1.4c0.5,0.3,2.8,1,2.6,1.7c0,0.2-0.1,0.3-0.1,0.5c0,0.3,0.2,0.5,0.3,0.8
				c0.3,0.6,0.4,1.3,0.3,2c0,0.2-0.1,0.4,0,0.5c0.1,0.2,0.4,0.3,0.7,0.3c0.7,0,1.5-0.1,2.1-0.5c0.1,0,0.2-0.1,0.2-0.2
				c0-0.1,0-0.2,0-0.3c-0.2-0.5-0.5-1-0.9-1.4c-0.2-0.3-0.5-0.4-0.7-0.7c-0.2-0.3-0.2-0.7-0.4-1c-0.1-0.2-0.3-0.3-0.4-0.4
				c-0.3-0.1-0.5-0.1-0.8-0.3c-0.2-0.2-0.4-0.4-0.7-0.5c-0.6-0.3-1.2-0.5-1.7-0.8c-0.6-0.3-1.1-0.7-1.4-1.2
				c-0.4-0.5-0.5-1.2-0.3-1.7c0.3-0.7,1-1.1,1.7-1.4c0.3-0.2,0.7-0.3,1-0.6c0.2-0.2,0.4-0.4,0.5-0.7c0.1-0.2,0.1-0.4,0.2-0.5
				c0.3-0.3,0.7,0.1,1,0.3c0.4,0.3,0.7,0.5,1,0.8c0.4,0.3,0.8,0.6,1.3,0.9c0.7,0.5,0.5,1.4,0.5,2.1c0,0.6,0,1.2,0,1.8
				c0.1,2.4,2.5,3.7,4.8,4c1.6,0.2,3.3,0.1,4.9-0.4c1.3-0.4,2.5-0.8,3.6-1.6c0.3-0.2,0.6-0.5,0.7-0.9c0.1-0.3,0.1-0.7,0.1-1
				c-0.1-1.1-0.1-2.2-0.2-3.3c0-0.2,0-0.4,0.1-0.5c0.1-0.1,0.2-0.2,0.3-0.3c1.2-0.7,2.7-1.3,3.6-2.3c0.1-0.1,0.1-0.1,0.1-0.2
				c0-0.1-0.1-0.2-0.2-0.2c-1.4-0.9-2.9-1.6-4.4-2.4c-1.6-0.8-3.3-1.4-4.9-2c-0.8-0.3-1.6-0.6-2.4-0.6c-0.9,0-1.7,0.3-2.5,0.5
				c-2.7,0.9-5.5,1.9-7.6,3.7c-0.4,0.4,0.1,0.8,0,1.3c0,0.4-0.3,0.8-0.6,1.1c-0.4,0.4-0.9,0.6-1.4,0.8c-0.5,0.2-0.9,0.5-1.2,0.9
				c-0.1,0.2-0.2,0.3-0.3,0.5C878.9,713,878.8,713.6,879.1,714.2z M899.6,714.8c0.1-0.4,0-0.9-0.2-1.2c-0.1-0.2-0.1-0.4-0.1-0.6
				c0-0.4-0.1-0.9,0.4-1.2c0.2-0.1,0.4-0.2,0.4,0.1c0.1,0.8,0.1,1.6,0.1,2.4c0,0.6,0.3,1.5-0.1,2c-0.1,0.1-0.4,0.6-0.6,0.3
				c0,0-0.1-0.1-0.1-0.1c-0.2-0.2-0.1-0.6-0.2-0.8C899.2,715.4,899.5,715.2,899.6,714.8z M899.1,714.9c-0.1,0-0.1-0.1-0.2-0.1
				c-0.1-0.1-0.1-0.3-0.1-0.4c0-0.2,0.1-0.5,0.3-0.4c0,0,0.1,0.1,0.1,0.1c0.1,0.1,0.1,0.3,0.1,0.5c0,0.1-0.1,0.3-0.2,0.3
				C899.2,714.9,899.1,714.9,899.1,714.9C899.1,714.9,899.1,714.9,899.1,714.9z M886.9,714.1c0-0.6,0-1.2,0-1.8c0-0.1,0-0.3,0.1-0.3
				c0.2,0,0.5,0.2,0.7,0.3c0.3,0.2,0.6,0.3,0.9,0.5c0.6,0.3,1.2,0.6,1.9,0.9c0.6,0.3,1.1,0.5,1.7,0.7c0.7,0.3,1.2,0.7,1.9,0.3
				c1.3-0.7,2.6-1.4,3.9-2.1c0.3-0.2,0.9-0.6,0.9,0c0,0.2,0,0.6-0.1,0.8c-0.1,0.2-0.2,0.3-0.2,0.4c-0.2,0.3-0.1,0.8,0.1,1.1
				c0.1,0.2,0.2,0.3,0.3,0.5c0.1,0.3,0.1,0.6,0.1,0.8c0,0.2,0,0.4,0,0.5c-0.1,0.6-1.3,0.9-1.8,1.1c-0.8,0.3-1.6,0.5-2.4,0.7
				c-1.4,0.3-2.6,0.3-3.9,0c-1.4-0.3-3.4-1.3-3.8-2.8C886.9,715.4,886.9,714.7,886.9,714.1z M882.9,707.9c0.9-0.8,2.8-1.8,4.8-2.6
				c2.2-0.9,4.5-1.5,5.1-1.4c0.4,0,3.7,1.2,5.6,2c2.1,0.9,4.2,2.1,5,2.6c0.1,0.1,0.4,0.3,0,0.5c-2,1.5-8.7,5.3-9.8,5.4
				c-0.5,0.1-1.6-0.5-1.9-0.7c-0.2-0.1-2.1-0.9-4.2-2.1c-2.2-1.2-3.8-2.7-4.1-2.9C883.4,708.7,882.7,708.1,882.9,707.9z
				 M884.1,718.8c0.1-0.3,0.5-0.3,0.8-0.2c0.7,0.3,1.2,1.1,1.4,1.8c0.2,0.6-1.5,0.7-1.8,0.7c-0.1,0-0.1,0-0.2,0
				c-0.3-0.1-0.2-1.1-0.2-1.3C884.1,719.5,884,719.1,884.1,718.8z M883.6,717.9c0,0,0-0.1,0-0.1c0-0.1,0.1-0.2,0.1-0.2
				c0,0,0.1-0.1,0.1-0.1c0.1,0,0.2-0.1,0.2-0.1l0,0c0.1,0,0.1,0,0.2,0c0.1,0,0.1,0,0.2,0.1c0.1,0,0.1,0.1,0.1,0.2
				c0,0.1,0.1,0.1,0.1,0.2l0,0.1c0,0.1-0.1,0.2-0.1,0.2c0,0-0.1,0.1-0.1,0.1c-0.1,0-0.2,0.1-0.2,0.1l0,0c-0.1,0-0.1,0-0.2,0
				c-0.1,0-0.1,0-0.2-0.1c-0.1,0-0.1-0.1-0.1-0.2C883.6,718,883.6,717.9,883.6,717.9z"/>
			<path class="st18" d="M884.7,721.6c-0.1,0-0.1,0-0.2,0c-0.4,0-0.8-0.2-0.9-0.4c-0.1-0.2-0.1-0.4,0-0.6c0.1-0.7,0-1.3-0.3-1.9
				l-0.1-0.1c-0.1-0.2-0.2-0.5-0.2-0.7c0-0.2,0-0.3,0.1-0.4c0,0,0-0.1,0-0.1c0.1-0.4-1.3-1-1.9-1.2c-0.3-0.1-0.5-0.2-0.6-0.3
				l-0.1-0.1c-0.7-0.4-1.2-0.7-1.6-1.4l0,0c-0.3-0.6-0.2-1.4,0-1.9c0.1-0.2,0.2-0.4,0.3-0.5c0.3-0.4,0.8-0.7,1.3-1l0.2-0.1
				c0.4-0.2,0.8-0.4,1.1-0.7c0.3-0.3,0.5-0.6,0.5-1c0-0.1,0-0.3-0.1-0.4c-0.1-0.3-0.3-0.6,0.1-1c2.2-1.8,5-2.8,7.7-3.7
				c0.8-0.3,1.7-0.5,2.5-0.6c0.8,0,1.5,0.2,2.2,0.5l0.3,0.1c1.7,0.6,3.3,1.3,5,2c1.5,0.7,3,1.5,4.4,2.4c0.1,0.1,0.3,0.2,0.3,0.4
				c0,0.2-0.1,0.3-0.1,0.3c-0.7,0.8-1.7,1.3-2.7,1.8c-0.3,0.2-0.7,0.3-1,0.5c-0.1,0.1-0.2,0.1-0.2,0.2c-0.1,0.1-0.1,0.2-0.1,0.4
				l0.2,3.3c0,0.3,0,0.8-0.1,1.1c-0.1,0.3-0.4,0.6-0.8,0.9c-1.1,0.8-2.3,1.2-3.6,1.6c-1.6,0.5-3.2,0.6-4.9,0.4
				c-2.4-0.3-4.9-1.7-5-4.2c0-0.6,0-1.3,0-1.8c0-0.1,0-0.2,0-0.3c0-0.6,0.1-1.3-0.4-1.6l-0.1-0.1c-0.4-0.3-0.8-0.5-1.1-0.8
				c-0.2-0.2-0.4-0.3-0.6-0.5c-0.1-0.1-0.3-0.2-0.4-0.3l-0.1-0.1c-0.3-0.2-0.5-0.4-0.6-0.2c-0.1,0.1-0.1,0.2-0.1,0.3
				c0,0.1,0,0.1-0.1,0.2c-0.1,0.3-0.3,0.5-0.6,0.8c-0.3,0.2-0.6,0.4-0.9,0.5l-0.1,0c-0.7,0.3-1.3,0.7-1.6,1.3
				c-0.2,0.5-0.1,1.1,0.2,1.5c0.3,0.4,0.7,0.8,1.4,1.1c0.3,0.2,0.6,0.3,1,0.4c0.3,0.1,0.5,0.2,0.8,0.3c0.2,0.1,0.4,0.2,0.5,0.4
				c0.1,0.1,0.1,0.1,0.2,0.2c0.2,0.1,0.3,0.1,0.5,0.2c0.1,0,0.2,0,0.2,0.1c0.2,0.1,0.4,0.2,0.6,0.4c0.1,0.2,0.2,0.4,0.2,0.5
				c0,0.2,0.1,0.3,0.2,0.5c0.1,0.1,0.2,0.2,0.4,0.3c0.1,0.1,0.3,0.2,0.4,0.3c0.4,0.4,0.7,0.9,0.9,1.4c0,0.1,0.1,0.2,0,0.4
				c0,0.1-0.2,0.2-0.3,0.3C886.1,721.4,885.4,721.6,884.7,721.6z M883.9,720.9c0,0.1,0,0.1,0,0.2c0,0,0,0.1,0.1,0.1
				C884,721,884,720.9,883.9,720.9z M884.2,718.9c0,0.1,0,0.3,0,0.5c0,0.1,0,0.2,0,0.3c0,0,0,0.1,0,0.2c0,0.6,0,0.9,0.1,1
				c0,0,0.1,0,0.1,0c0.5,0,1.4-0.1,1.6-0.3c0,0,0,0,0-0.1c-0.1-0.3-0.6-1.4-1.3-1.7c-0.2-0.1-0.3-0.1-0.4,0
				C884.3,718.8,884.3,718.8,884.2,718.9L884.2,718.9z M886.1,719.6c0.2,0.3,0.3,0.6,0.3,0.7c0.1,0.1,0,0.3-0.1,0.4c0,0,0,0-0.1,0.1
				c0.1,0,0.1-0.1,0.2-0.1c0.1,0,0.1-0.1,0.1-0.1c0,0,0-0.1,0-0.1C886.5,720.2,886.3,719.9,886.1,719.6z M886.7,714.2
				c0,0.3,0,0.7,0,1c0.1,2.3,2.4,3.6,4.7,3.8c1.6,0.2,3.3,0.1,4.8-0.4c1.3-0.4,2.5-0.8,3.5-1.6c0.3-0.3,0.6-0.5,0.7-0.8
				c0-0.1,0.1-0.2,0.1-0.3c0,0.2-0.1,0.3-0.2,0.4c-0.2,0.3-0.4,0.5-0.6,0.5c-0.1,0-0.2-0.1-0.3-0.1l-0.1-0.1c0,0,0,0,0,0
				c0,0.1,0,0.2,0,0.3c-0.1,0.6-1,0.9-1.6,1.1c-0.1,0-0.2,0.1-0.3,0.1c-0.7,0.3-1.5,0.5-2.5,0.7c-1.4,0.3-2.7,0.3-4,0
				c-1.6-0.4-3.5-1.4-4-2.9c-0.2-0.5-0.2-1.1-0.2-1.6L886.7,714.2z M883.5,718.3C883.6,718.3,883.6,718.3,883.5,718.3l0.1,0.2
				c0.1,0.2,0.1,0.3,0.2,0.5c0-0.1,0-0.1,0-0.2l0,0c0-0.1,0.1-0.2,0.2-0.3c-0.1,0-0.1,0-0.2,0c-0.1,0-0.1-0.1-0.2-0.1
				C883.6,718.3,883.6,718.3,883.5,718.3z M887.1,714.1l0,0.3c0,0.5,0,1,0.2,1.5c0.4,1.5,2.4,2.4,3.7,2.7c1.3,0.3,2.5,0.3,3.9,0
				c1-0.2,1.8-0.4,2.4-0.7c0.1,0,0.2-0.1,0.3-0.1c0.5-0.1,1.3-0.4,1.3-0.8c0-0.1,0-0.2,0-0.3c0-0.1,0-0.1,0-0.2l0-0.2
				c0-0.2,0-0.4-0.1-0.6c0-0.1-0.1-0.2-0.1-0.3c0-0.1-0.1-0.1-0.1-0.3c-0.2-0.5-0.2-0.9-0.1-1.3c0-0.1,0.1-0.1,0.1-0.2
				c0-0.1,0.1-0.1,0.1-0.2c0.1-0.1,0.1-0.5,0.1-0.7c0-0.1,0-0.2,0-0.2c0,0-0.3,0.1-0.4,0.2c-0.1,0-0.1,0.1-0.2,0.1
				c-0.6,0.3-1.3,0.7-1.9,1c-0.7,0.4-1.3,0.7-2,1.1c-0.6,0.3-1.2,0.1-1.7-0.1c-0.1-0.1-0.3-0.1-0.4-0.2c-0.6-0.2-1.1-0.5-1.7-0.7
				c-0.6-0.3-1.3-0.6-1.9-0.9c-0.3-0.2-0.6-0.3-0.9-0.5c-0.1,0-0.1-0.1-0.2-0.1c-0.1-0.1-0.2-0.2-0.4-0.2c0,0,0,0,0,0
				c0,0,0,0.1,0,0.1C887.1,712.9,887.1,713.5,887.1,714.1L887.1,714.1z M884.5,718.4c0.2,0,0.3,0,0.4,0.1c0,0,0.1,0,0.1,0
				c0,0,0,0,0,0c-0.1-0.2-0.2-0.4-0.2-0.5c0,0.1-0.1,0.2-0.2,0.3L884.5,718.4z M883.8,717.9C883.8,717.9,883.8,717.9,883.8,717.9
				c0.1,0.1,0.1,0.2,0.1,0.2c0,0,0.1,0,0.1,0.1c0.1,0,0.1,0,0.1,0c0.1,0,0.1,0,0.2-0.1l0.1-0.1c0,0,0-0.1,0-0.1l0-0.1c0,0,0,0,0-0.1
				c0-0.1,0-0.1-0.1-0.1c0,0-0.1,0-0.1-0.1c-0.1,0-0.1,0-0.1,0c-0.1,0-0.1,0-0.2,0.1l-0.1,0.1C883.8,717.7,883.8,717.7,883.8,717.9
				L883.8,717.9z M883.4,716.9c0.1,0.2,0.1,0.3,0.1,0.5c0,0.1,0,0.1-0.1,0.2c0,0.1-0.1,0.2,0,0.2c0,0,0,0.1,0,0.1c0,0,0,0,0,0l0,0
				l0-0.1c0-0.1,0.1-0.2,0.2-0.3l0.1-0.1c0.1-0.1,0.2-0.1,0.4-0.1c0.1,0,0.2,0,0.3,0c0,0,0,0,0,0c0,0-0.1,0-0.1,0
				c-0.1,0-0.2,0-0.2,0C883.9,717.1,883.7,717.1,883.4,716.9C883.4,716.9,883.4,716.9,883.4,716.9z M899.6,716.6
				C899.6,716.6,899.6,716.6,899.6,716.6L899.6,716.6C899.6,716.6,899.6,716.6,899.6,716.6z M899.8,714.9c0,0.2-0.1,0.3-0.2,0.4
				c-0.1,0.2-0.2,0.3-0.2,0.4c0,0.1,0,0.1,0,0.2c0,0.2,0,0.5,0.1,0.6c0,0,0,0.1,0.1,0.1c0,0,0.1,0,0.3-0.3c0.2-0.3,0.2-0.9,0.1-1.4
				c0-0.2,0-0.3,0-0.5c0-0.2,0-0.4,0-0.6c0-0.6,0-1.2-0.1-1.8c0,0,0,0,0,0c0,0-0.1,0-0.1,0.1l0,0c-0.3,0.2-0.3,0.5-0.3,1
				c0,0.1,0,0.1,0,0.2c0,0.1,0,0.2,0.1,0.3C899.8,713.9,899.9,714.4,899.8,714.9L899.8,714.9z M898.9,715.1c0,0.1,0.1,0.1,0.1,0.1
				c0,0.1,0.1,0.1,0.1,0.2c0-0.1,0.1-0.2,0.2-0.3c0,0,0,0,0,0c-0.1,0-0.1,0-0.2,0l0,0l0,0C899,715.1,899,715.1,898.9,715.1z
				 M879.1,712.9c-0.1,0.4-0.1,0.8,0.1,1.2l0,0c0.2,0.4,0.5,0.6,0.8,0.9c-0.2-0.2-0.4-0.4-0.5-0.6
				C879.2,713.9,879.1,713.4,879.1,712.9z M899.1,714.1c0,0-0.1,0.1,0,0.2c0,0.1,0,0.3,0.1,0.4c0,0,0,0,0,0c0,0,0-0.1,0.1-0.2
				C899.2,714.4,899.2,714.3,899.1,714.1C899.1,714.1,899.1,714.1,899.1,714.1z M892.7,714.4C892.7,714.4,892.7,714.4,892.7,714.4
				c0.5,0.2,0.9,0.4,1.4,0.2c0.3-0.1,0.5-0.3,0.8-0.4c-0.5,0.3-1,0.4-1.2,0.4C893.5,714.7,893.1,714.6,892.7,714.4z M883,708.1
				c0,0,0,0.2,0.5,0.6l0.1,0.1c1.3,1.1,2.6,2.1,4,2.9c1.7,1,3.4,1.7,4,2c0.1,0.1,0.2,0.1,0.2,0.1c0.9,0.4,1.5,0.7,1.8,0.6
				c1.1-0.1,7.7-3.9,9.7-5.4c0.1-0.1,0.1-0.1,0.1-0.1c0,0,0,0-0.1-0.1c-0.9-0.6-3.1-1.8-5-2.6c-1.9-0.8-5.1-1.9-5.5-2
				c-0.6-0.1-2.9,0.6-5,1.4C885.9,706.3,884,707.3,883,708.1L883,708.1z M887.5,711.9c0.1,0,0.1,0.1,0.2,0.1c0.1,0,0.1,0.1,0.2,0.1
				c0.3,0.2,0.6,0.3,0.9,0.5c0.6,0.3,1.2,0.6,1.9,0.9c0.5,0.2,1,0.4,1.5,0.6c-0.2-0.1-0.3-0.2-0.5-0.2c0,0-0.1,0-0.2-0.1
				C890.8,713.6,889.2,712.9,887.5,711.9z M899.1,713.7c0.1,0,0.1,0,0.2,0c0,0,0,0,0,0c-0.1-0.1-0.1-0.2-0.1-0.3c0,0,0,0.1,0,0.1
				C899,713.6,899,713.7,899.1,713.7C899,713.7,899,713.7,899.1,713.7z M880.3,711.3c-0.3,0.2-0.6,0.4-0.9,0.7
				c-0.1,0.1-0.2,0.3-0.2,0.4c0,0,0,0,0,0C879.4,712,879.8,711.6,880.3,711.3z M898.8,712.2c0.1,0,0.1,0,0.2,0
				c0.1,0,0.1,0.1,0.1,0.1c0.1-0.2,0.2-0.5,0.5-0.7l0,0c0.2-0.1,0.3-0.2,0.5-0.1c0.1,0,0.1,0.1,0.2,0.2c0-0.1,0-0.3,0.1-0.4
				c0.1-0.1,0.2-0.2,0.4-0.3c0.3-0.2,0.6-0.4,1-0.5c0.9-0.5,1.9-1,2.6-1.8c0,0,0-0.1,0.1-0.1c0,0,0,0-0.1-0.1
				c-1.2-0.7-2.4-1.4-3.6-2c1.3,0.6,2.4,1.3,3,1.6c0.2,0.1,0.3,0.2,0.3,0.4c0,0.2-0.1,0.3-0.3,0.5
				C902.7,709.9,900.7,711.1,898.8,712.2C898.7,712.2,898.7,712.2,898.8,712.2z M883.1,709c0.3,0,0.6,0.2,0.8,0.4l0.1,0.1
				c0.1,0.1,0.3,0.2,0.4,0.3c0.2,0.2,0.4,0.3,0.6,0.5c0.3,0.3,0.7,0.6,1.1,0.8l0.1,0.1c0.4,0.3,0.5,0.6,0.6,1l0,0
				c0-0.1,0-0.4,0.3-0.4c0.2,0,0.3,0,0.4,0.1c0,0,0,0,0,0c-1.4-0.8-2.8-1.8-4.1-2.9l0.1-0.2l-0.1,0.1c-0.5-0.4-0.6-0.7-0.6-0.9
				c0-0.1,0-0.2,0.1-0.2c-0.1,0-0.1,0.1-0.2,0.1c-0.2,0.1-0.1,0.2,0,0.5c0.1,0.2,0.1,0.4,0.1,0.6c0,0.1,0,0.1,0,0.2c0,0,0,0,0,0
				C882.8,709.1,882.9,709,883.1,709z M882.3,710c-0.1,0.1-0.2,0.2-0.3,0.3c-0.1,0.1-0.2,0.2-0.4,0.3c0.1-0.1,0.2-0.1,0.3-0.2
				C882.1,710.3,882.2,710.1,882.3,710z M882.9,707.9l0.1,0.1v0L882.9,707.9l0.1,0.1L882.9,707.9z M892.6,703.7
				C892.6,703.7,892.6,703.7,892.6,703.7c-0.8,0-1.6,0.3-2.4,0.5c-2.4,0.8-4.8,1.7-6.8,3.1c1.1-0.7,2.7-1.6,4.4-2.2
				C889.6,704.4,891.7,703.8,892.6,703.7z M893.1,703.8c0.7,0.2,2.9,0.9,4.5,1.6c-0.9-0.4-1.8-0.7-2.7-1l-0.3-0.1
				C894.1,704,893.6,703.8,893.1,703.8z"/>
		</g>
	</g>
	<g class="st26">
		<path class="st18" d="M102.5,320.4c3.1,4.5,6.5,8.7,9.1,11.9c1.2,1.4,2.4,2.8,3.6,4.3c0.2,0.3,0.5,0.6,0.7,0.9
			c0.4,0.4,0.7,0.9,1.1,1.3c0.1,0.2,0.3,0.4,0.4,0.6c0.3,0.4,0.6,0.8,1,1.1c0.2,0.1,0.5,0.2,0.7,0.1c0.5-0.1,0.9-0.8,1.2-1.4
			c0.1-0.1,0.2-0.3,0.3-0.4c0.9-1.3,1.7-2.7,2.6-4.2l0.1-0.1l0.1,0.1c1.1,0.8,2.2,1.7,3.3,2.6c0.2,0.1,0.4,0.2,0.5,0.1
			c0.2-0.1,0.3-0.3,0.2-0.5l-1.2-7.7l0,0c0,0,0-0.1,0.1-0.1c0.8-1.5,1.7-3.4,2.2-5.3c0-0.2,0-0.4-0.2-0.5c-1.8-0.9-4.1-1.1-6.2-1.4
			c-0.5-0.1-0.9-0.1-1.4-0.2c-2.3-0.3-4.9-0.6-7.9-0.9c-3.5-0.3-6.7-0.6-9.8-0.8c0,0,0,0,0,0c-0.2,0-0.3,0.1-0.4,0.2
			C102.5,320,102.4,320.2,102.5,320.4z M126.3,335.6l-0.2-0.2c-1-0.8-2-1.5-2.9-2.2c-3.3-2.3-6.6-4.4-10-6.6l-0.4-0.3
			c-1.8-1.1-3.6-2.3-5.4-3.5l-0.8-0.6l8.3,3.2c3.6,1.4,6.9,2.7,10.5,3.5l0.1,0L126.3,335.6z M106.1,320.8c2,0.2,4,0.3,6,0.5
			c3,0.3,5.4,0.6,7.6,0.8c1.3,0.2,2.5,0.4,3.6,0.5c0.3,0,0.5,0.1,0.8,0.1c1.1,0.2,2.2,0.3,3.2,0.7l0.1,0l0,0.1
			c-0.5,1.7-1.2,3.2-1.8,4.3l0,0.1l-0.1,0c-3.6-0.8-6.9-2.1-10.6-3.5c-3-1.2-5.9-2.3-8.9-3.5l-0.7-0.3L106.1,320.8z M105.5,322.6
			c3.1,2.4,6.5,4.5,9.8,6.6c2.4,1.5,4.8,3,7.1,4.7l0.1,0.1l-0.1,0.1c-0.6,1-1.1,1.9-1.6,2.7c-0.2,0.2-0.3,0.5-0.5,0.8
			c-0.4,0.7-0.8,1.5-1.4,2l-0.1,0.1l-0.1-0.1c-0.2-0.2-0.4-0.5-0.6-0.7c-0.1-0.1-0.1-0.2-0.2-0.3c-0.3-0.4-0.6-0.8-1-1.1l-0.2-0.3
			c-0.9-1.1-1.9-2.2-2.7-3.2c-1.8-2.1-3.5-4.3-5.2-6.4c-1.2-1.5-2.4-3-3.5-4.7l-0.4-0.6L105.5,322.6z"/>
	</g>
	<g class="st26">
		<path class="st18" d="M835.6,167c3.1,4.5,6.5,8.7,9.1,11.9c1.2,1.4,2.4,2.8,3.6,4.3c0.2,0.3,0.5,0.6,0.7,0.9
			c0.4,0.4,0.7,0.9,1.1,1.3c0.1,0.2,0.3,0.4,0.4,0.6c0.3,0.4,0.6,0.8,1,1.1c0.2,0.1,0.5,0.2,0.7,0.1c0.5-0.1,0.9-0.8,1.2-1.4
			c0.1-0.1,0.2-0.3,0.3-0.4c0.9-1.3,1.7-2.7,2.6-4.2l0.1-0.1l0.1,0.1c1.1,0.8,2.2,1.7,3.3,2.6c0.2,0.1,0.4,0.2,0.5,0.1
			c0.2-0.1,0.3-0.3,0.2-0.5l-1.2-7.7l0,0c0,0,0-0.1,0.1-0.1c0.8-1.5,1.7-3.4,2.2-5.3c0-0.2,0-0.4-0.2-0.5c-1.8-0.9-4.1-1.1-6.2-1.4
			c-0.5-0.1-0.9-0.1-1.4-0.2c-2.3-0.3-4.9-0.6-7.9-0.9c-3.5-0.3-6.7-0.6-9.8-0.8c0,0,0,0,0,0c-0.2,0-0.3,0.1-0.4,0.2
			C835.5,166.7,835.5,166.9,835.6,167z M859.4,182.3l-0.2-0.2c-1-0.8-2-1.5-2.9-2.2c-3.3-2.3-6.6-4.4-10-6.6l-0.4-0.3
			c-1.8-1.1-3.6-2.3-5.4-3.5l-0.8-0.6l8.3,3.2c3.6,1.4,6.9,2.7,10.5,3.5l0.1,0L859.4,182.3z M839.2,167.5c2,0.2,4,0.3,6,0.5
			c3,0.3,5.4,0.6,7.6,0.8c1.3,0.2,2.5,0.4,3.6,0.5c0.3,0,0.5,0.1,0.8,0.1c1.1,0.2,2.2,0.3,3.2,0.7l0.1,0l0,0.1
			c-0.5,1.7-1.2,3.2-1.8,4.3l0,0.1l-0.1,0c-3.6-0.8-6.9-2.1-10.6-3.5c-3-1.2-5.9-2.3-8.9-3.5l-0.7-0.3L839.2,167.5z M838.5,169.2
			c3.1,2.4,6.5,4.5,9.8,6.6c2.4,1.5,4.8,3,7.1,4.7l0.1,0.1l-0.1,0.1c-0.6,1-1.1,1.9-1.6,2.7c-0.2,0.2-0.3,0.5-0.5,0.8
			c-0.4,0.7-0.8,1.5-1.4,2l-0.1,0.1l-0.1-0.1c-0.2-0.2-0.4-0.5-0.6-0.7c-0.1-0.1-0.1-0.2-0.2-0.3c-0.3-0.4-0.6-0.8-1-1.1l-0.2-0.3
			c-0.9-1.1-1.9-2.2-2.7-3.2c-1.8-2.1-3.5-4.3-5.2-6.4c-1.2-1.5-2.4-3-3.5-4.7l-0.4-0.6L838.5,169.2z"/>
	</g>
	<g class="st26">
		<g>
			<path class="st18" d="M258,475.3c-0.2-2.1-1-4.2-2.4-5.8c-1.4-1.6-3.2-2.8-5.3-3.3c-2.2-0.5-4.5-0.4-6.7,0.2
				c-2.1,0.5-4.1,1.6-5.7,3.1c-3.1,3-4.4,7.9-2.7,11.9c1.6,3.8,5.5,6.1,9.5,6.5c0.5,0.1,0.9,0.1,1.4,0.1c1,0.8,2.2,1.4,3.3,2
				c0.6,0.3,1.2,0.6,1.9,0.8c0.6,0.2,1.2,0.5,1.8,0.5c0.2,0,0.3-0.1,0.3-0.3c0-0.3-0.3-0.5-0.5-0.7c-0.3-0.3-0.5-0.6-0.8-0.9
				c-0.3-0.4-0.6-0.7-0.9-1.1c-0.1-0.2-0.2-0.4-0.4-0.6c-0.1-0.1-0.3-0.3-0.3-0.4c0,0,0,0,0,0c1.2-0.6,2.5-1.2,3.6-2.1
				c1-0.8,1.8-1.8,2.4-2.9C257.7,480.2,258.2,477.7,258,475.3z M256.7,480.4c-0.4,1.1-1,2.2-1.8,3.1c-0.8,1-1.8,1.7-3,2.4
				c-0.6,0.3-1.2,0.6-1.8,0.9c-0.1,0.1-0.2,0.2-0.1,0.3c0,0,0,0,0,0c-0.1,0.4,0.2,0.6,0.4,1c0.3,0.4,0.5,0.8,0.8,1.2
				c0.3,0.4,0.7,0.8,1,1.2c0.1,0.1,0,0.1,0.2,0.2c-0.3-0.1-0.6-0.2-0.9-0.4c-0.6-0.2-1.2-0.5-1.8-0.8c-1.1-0.5-2.1-1.1-3-1.9
				c0-0.1-0.1-0.2-0.2-0.2c0,0,0,0-0.1,0c0,0-0.1,0-0.1,0c-3.8-0.1-7.7-1.7-9.7-5c-2.2-3.5-1.6-8.2,0.9-11.4
				c2.6-3.3,7.1-4.8,11.2-4.5c2.1,0.1,4,0.9,5.6,2.3c1.5,1.3,2.6,3.1,3,5.1C257.7,476,257.5,478.3,256.7,480.4z"/>
			<path class="st18" d="M253.1,491.6C253.1,491.6,253.1,491.6,253.1,491.6c-0.6,0-1.1-0.2-1.6-0.4l-0.3-0.1
				c-0.7-0.3-1.3-0.5-1.9-0.8c-1.4-0.7-2.4-1.3-3.3-2c-0.4,0-0.9,0-1.4-0.1c-4.4-0.5-8.1-3.1-9.7-6.7c-1.7-4-0.5-9.1,2.7-12.2
				c1.5-1.5,3.5-2.5,5.8-3.1c2.3-0.6,4.7-0.7,6.8-0.2c2.1,0.5,4.1,1.7,5.4,3.4c1.4,1.7,2.2,3.7,2.4,6l0,0c0.3,2.5-0.3,5-1.5,7.1
				c-0.6,1.1-1.5,2.1-2.4,2.9c-1,0.8-2.1,1.4-3.4,2.1c0,0,0.1,0.1,0.1,0.1c0,0,0.1,0.1,0.1,0.1c0.1,0.1,0.2,0.3,0.3,0.4l0.1,0.2
				c0.2,0.4,0.5,0.7,0.8,1l0.2,0.2c0.2,0.3,0.4,0.5,0.6,0.7c0.2,0.2,0.6,0.5,0.5,0.9C253.6,491.4,253.4,491.6,253.1,491.6z
				 M247.5,466.1c-1.2,0-2.5,0.2-3.8,0.5c-2.2,0.6-4.1,1.6-5.6,3c-3.1,3-4.2,7.9-2.6,11.7c1.5,3.4,5,5.9,9.3,6.4
				c0.5,0.1,1,0.1,1.4,0.1l0.1,0l0.1,0.1c0.9,0.7,1.9,1.3,3.3,2c0.6,0.3,1.2,0.6,1.8,0.8l0.3,0.1c0.5,0.2,0.9,0.4,1.4,0.4
				c0-0.2-0.2-0.4-0.3-0.5c-0.3-0.3-0.5-0.5-0.7-0.8l-0.2-0.2c-0.3-0.3-0.6-0.7-0.8-1.1l-0.1-0.2c-0.1-0.1-0.2-0.3-0.3-0.4
				c0,0,0-0.1-0.1-0.1c-0.1-0.1-0.3-0.3-0.3-0.5l0-0.1v-0.2l0.1-0.1c1.3-0.6,2.5-1.3,3.5-2.1c0.9-0.8,1.7-1.7,2.3-2.8
				c1.2-2,1.7-4.5,1.4-6.8l0,0c-0.2-2.1-1-4.1-2.3-5.7c-1.3-1.6-3.2-2.8-5.2-3.2C249.3,466.2,248.4,466.1,247.5,466.1z M252.3,490.9
				c-0.2-0.1-0.4-0.2-0.7-0.2l-0.3-0.1c-0.6-0.2-1.2-0.5-1.9-0.8c-0.9-0.5-2-1.1-3.1-1.9l-0.1,0l0-0.1l0-0.3l0,0.3l-0.1,0l-0.1,0
				c-4.2-0.1-8-2.1-10-5.2c-2.1-3.5-1.8-8.3,0.9-11.7c2.4-3.1,6.8-4.9,11.4-4.6c2.2,0.1,4.2,0.9,5.8,2.3c1.5,1.3,2.6,3.2,3.1,5.2
				c0.5,2.2,0.4,4.6-0.4,6.8l0,0c-0.4,1.2-1.1,2.2-1.8,3.1c-0.8,0.9-1.8,1.7-3,2.4c-0.6,0.3-1.2,0.7-1.9,1l0,0.1l0,0.1
				c0,0.2,0.1,0.4,0.3,0.6l0.1,0.1c0.1,0.2,0.2,0.3,0.4,0.5c0.1,0.2,0.3,0.4,0.4,0.6c0.3,0.4,0.6,0.8,1,1.2c0,0,0.1,0.1,0.1,0.1
				L252.3,490.9z M246.8,487.4c1,0.8,2.1,1.4,3,1.8c0.6,0.3,1.2,0.6,1.8,0.8c-0.2-0.2-0.3-0.4-0.5-0.6c-0.2-0.2-0.3-0.5-0.5-0.7
				c-0.1-0.2-0.2-0.3-0.3-0.5l-0.1-0.1c-0.2-0.3-0.4-0.5-0.4-1c0-0.2,0.1-0.4,0.3-0.6c0.6-0.3,1.2-0.6,1.8-0.9
				c1.2-0.7,2.1-1.4,2.9-2.3c0.7-0.9,1.3-1.9,1.7-3c0.8-2.1,0.9-4.4,0.4-6.5c-0.5-1.9-1.5-3.7-3-4.9c-1.5-1.3-3.4-2.1-5.5-2.2
				c-4.4-0.3-8.6,1.4-11,4.4c-2.5,3.3-2.9,7.8-0.9,11.1c1.8,3,5.5,4.9,9.5,4.9c0,0,0.1,0,0.2,0C246.6,487.2,246.7,487.3,246.8,487.4
				z"/>
		</g>
	</g>
	<g class="st26">
		<path class="st18" d="M120.1,684.1c0.8-3.6-17.7-8.8-21.1-8.1c-1.9-0.1-7.9-0.6-3.7,1.9c0.1,0,0.8,0.8,0.9,0.8
			c1.5,1.6,1.9,2.5,3.6,3.7l0.6,0.3c0,0,0.8,0.5,0.9,0.5c3.7,2.6,8.3,2.2,12.2,4.4c1,0.5,2.7,1.9,3.8,1
			C119,688.2,120.2,686,120.1,684.1L120.1,684.1z M118,685.4c-0.3,1.2-1.4,1.8-1.7,2.9c-2.3-0.4-1.2-1.3-0.6-2.5
			c0.9-1.2,0.1-3.4,1.3-4.2C118.5,681.9,118.1,684.9,118,685.4L118,685.4z M103.6,679.9c0.2-0.4,0.2-0.8,0.1-1.1
			c4.1,1.6,8.2,3.2,12.2,4.7c-0.1,0.6-0.2,1.3-0.5,1.8c-4.1-2-8.8-3-13-4.8C102.9,680.5,103.3,680.2,103.6,679.9L103.6,679.9z
			 M109.9,678.8c2,0.9,4.2,1.7,6.2,2.5c-0.2,0.5,0,1.2-0.2,1.7c-4-1.8-8.3-3.2-12.6-4.6l0,0c0.6-0.1,1.1-0.9,0.7-1.4
			C106,677.3,108.2,678.2,109.9,678.8z M98.2,680c-0.5-0.6-1.1-1.1-1.7-1.7c0.1,0,0.1,0,0.2,0c0.4-0.2,0.9-0.9,0.9-1.4
			c1.7,0.2,3.9-0.1,5.6,0.1c0.8,1.5-1.3,0.5-0.4,1.5c0,0,0,0.1,0.1,0.1c0.5,0.6-0.5,2.1-1.5,1.6c-0.2-0.1-0.4,0.2-0.2,0.4
			c0.5,0.5,0.7,0.5,0.2,1.3C100.5,683.4,99.1,680.5,98.2,680L98.2,680z M113,686.7c-3.7-1.7-8.1-2.1-11.7-4.1c0.8,0,1.2-1.3,0.7-1.9
			c4.3,2,8.9,3.3,13.3,5c-0.2,0.5-1.1,1.2-1.1,1.7C113.7,687.1,113.3,686.8,113,686.7z M116.9,688.2c1.1-1.7,2.3-3.7,1.5-5.7
			C120.9,683.7,119.1,687.5,116.9,688.2L116.9,688.2z"/>
	</g>
	<g class="st26">
		<g>
			<path class="st18" d="M674.6,38.2c-1.3-1-3.1-1.6-5-1.6c-2.4,0-4.4,0.9-5.6,2.4c-1.7,2.1-1.9,5.6-1.4,8.1c0.3,1.7,0.9,3,1.9,3.8
				c0.4,0.4,0.9,0.6,1.4,0.8c0,0.6,0.2,1,0.5,1.4c0.2,0.2,0.4,0.4,0.6,0.5c-0.1,0.6-0.1,1.1,0.2,1.5c0.2,0.2,0.4,0.4,0.7,0.6
				c-0.1,0.4-0.1,0.7,0.1,0.9c0.3,0.4,0.9,0.7,1.7,0.7c0.8,0,1.6-0.3,2.1-0.8c0.3-0.4,0.5-0.8,0.4-1.3c0,0,0-0.1,0-0.1
				c0.2-0.1,0.3-0.2,0.4-0.4c0.4-0.5,0.6-1.1,0.5-1.8c0-0.1,0-0.1-0.1-0.1c0.1-0.1,0.2-0.2,0.3-0.3c0.6-0.6,0.8-1.4,0.8-2.2
				c1.3-0.9,2.3-2.3,2.6-4.4C677.1,43.3,677.2,40.2,674.6,38.2z M672.1,54.4c-0.5,0.6-1.5,1-2.6,1c-0.8,0-1.4-0.2-1.7-0.6
				c-0.2-0.2-0.2-0.4-0.2-0.7c0.5,0.2,1,0.2,1.6,0.2c1.2,0,2.4-0.3,3.3-0.9C672.4,53.7,672.3,54.1,672.1,54.4z M673.5,50.1
				C673.5,50.1,673.5,50.1,673.5,50.1c-1.2,0.8-2.5,1.1-3.5,1.3c0-0.2-0.1-0.5-0.1-0.7c0,0,0-0.1,0-0.1c-0.1-0.7-0.1-1.3,0-1.9
				c0-0.1,0-0.1,0-0.2c0-0.3,0-0.6,0.1-0.9l0-0.2c0.1-0.5,0.1-1.3,0.3-1.9c0.2-0.1,0.4-0.2,0.6-0.3l0.1,0c0.4-0.2,1-0.5,1-0.9
				c0-0.2,0-0.3-0.1-0.4c-0.2-0.2-0.5-0.3-0.8-0.2c-0.5,0.1-0.9,0.5-1.2,1.3c-0.4,0.1-0.8,0.3-1.2,0.4l-0.2,0.1
				c-0.2,0-0.3,0.1-0.5,0.1c-0.1-0.3-0.3-0.5-0.4-0.7c-0.2-0.2-0.3-0.3-0.5-0.3c-0.3,0-0.6,0.2-0.7,0.6c-0.1,0.3-0.1,0.7,0.3,0.9
				c0.2,0.2,0.5,0.2,0.9,0.2c0,0,0,0,0,0c0.6,1.7,1,3.6,1.3,5.2c0,0,0,0-0.1,0c-2.7,0-4.5-1.3-5.1-3.8c-0.6-2.2-0.4-4.9,0.3-6.9
				c1-2.6,3.7-3.5,5.9-3.5c1.4,0,2.8,0.4,3.9,1c1.4,0.9,2.4,2.3,2.7,3.7c0.1,0.9,0,1.8,0,2.7l0,0.4c-0.1,1.6-0.5,2.7-1.1,3.6
				c-0.4,0.5-0.8,0.9-1.3,1.3C673.6,50,673.5,50,673.5,50.1z M669.5,45.8L669.5,45.8c-0.4,1.5-0.5,3.1-0.4,4.9c-0.2-1.1-0.4-2-0.7-3
				c0-0.1-0.1-0.3-0.1-0.5l0,0c-0.1-0.3-0.2-0.7-0.3-1C668.5,46.1,669,46,669.5,45.8C669.5,45.8,669.5,45.8,669.5,45.8z M669.3,53.5
				c-1.1,0-2-0.3-2.5-0.8c-0.2-0.2-0.3-0.4-0.3-0.7c0.5,0.1,1.1,0.2,1.7,0.2c0.4,0,0.8,0,1.3-0.1c0,0,0.1,0,0.1,0
				c0.1,0,0.2,0,0.2-0.1c0,0,0.1,0,0.1,0c1.1-0.2,2.3-0.6,3.4-1.2c0,0.5-0.2,0.9-0.6,1.3C672.1,53,670.7,53.5,669.3,53.5z
				 M669.9,56.6c-0.1,0-0.1,0-0.2,0c-0.2,0-0.9,0-1.1-0.3c-0.1-0.1-0.1-0.2,0-0.3c0.3,0.1,0.6,0.1,0.9,0.1c0.7,0,1.5-0.2,2.1-0.5
				C671.4,56.4,670.3,56.6,669.9,56.6z"/>
			<path class="st18" d="M667.7,34.2c0.1,0,0.2,0,0.3-0.1c0.1-0.1,0.1-0.2,0.1-0.3l-0.1-2.2c0-0.2-0.2-0.3-0.3-0.3
				c-0.1,0-0.2,0-0.3,0.1c-0.1,0.1-0.1,0.2-0.1,0.3l0.1,2.2C667.4,34.1,667.6,34.2,667.7,34.2z"/>
			<path class="st18" d="M662.8,36.7c0.1-0.1,0-0.3-0.1-0.4l-1.5-1.5c-0.2-0.2-0.4-0.1-0.5,0.2c-0.1,0.1,0,0.3,0.1,0.4l1.5,1.5
				c0.1,0.1,0.1,0.1,0.2,0.1C662.6,36.9,662.8,36.8,662.8,36.7z"/>
			<path class="st18" d="M657.8,40.7l2.1,0.4l0.1,0c0.2,0,0.4-0.2,0.4-0.4c0-0.2-0.1-0.3-0.2-0.3L658,40c-0.2,0-0.4,0.2-0.4,0.4
				C657.5,40.5,657.6,40.6,657.8,40.7z"/>
			<path class="st18" d="M660.2,45l-2.3,0.1c-0.2,0-0.4,0.2-0.4,0.4c0,0.2,0.1,0.3,0.3,0.3h0l2.3-0.1c0.2,0,0.4-0.2,0.4-0.4
				C660.5,45.1,660.4,45,660.2,45z M657.9,45.7L657.9,45.7L657.9,45.7L657.9,45.7z"/>
			<path class="st18" d="M673.3,34.8c0.1,0,0.3-0.1,0.3-0.2l1-2.2c0.1-0.1,0-0.2,0-0.3c-0.1-0.1-0.2-0.1-0.3-0.1
				c-0.1,0-0.3,0.1-0.3,0.2l-1,2.2c0,0.1,0,0.2,0,0.3C673.1,34.7,673.2,34.8,673.3,34.8z"/>
			<path class="st18" d="M680,35.3c0-0.2-0.3-0.3-0.5-0.2c-1,0.4-1.9,0.9-2.7,1.6c-0.2,0.1-0.2,0.3-0.1,0.4c0,0.1,0.2,0.2,0.3,0.2
				c0.1,0,0.2,0,0.2-0.1c0.8-0.6,1.6-1.1,2.5-1.5C679.9,35.6,680,35.4,680,35.3z"/>
			<path class="st18" d="M682.2,40.6c0-0.2-0.1-0.3-0.3-0.3L679,41c-0.2,0-0.3,0.3-0.3,0.4c0,0.2,0.1,0.3,0.3,0.3h0l2.9-0.7
				C682.1,41,682.2,40.7,682.2,40.6z"/>
			<path class="st18" d="M682,44.5L682,44.5l-2.3,0.1c-0.2,0-0.4,0.2-0.4,0.4c0,0.2,0.1,0.3,0.3,0.3h0l2.3-0.1
				c0.2,0,0.4-0.2,0.4-0.4C682.3,44.6,682.2,44.5,682,44.5z M679.7,45.3L679.7,45.3L679.7,45.3L679.7,45.3z"/>
		</g>
	</g>
	<g class="st26">
		<path class="st18" d="M363.7,337c-0.9-5.7-6.6-11.7-12.8-11.3c0,0-0.1,0-0.1,0c0,0-0.1,0-0.1,0c-0.1,0-0.1,0-0.2,0
			c-0.1,0-0.1,0-0.2,0c0,0,0,0-0.1,0c0,0-0.1,0-0.1,0c-1.4,0.2-2.7,0.6-3.9,1c-0.2-0.1-0.4-0.1-0.6,0c-0.1,0.1-0.3,0.2-0.4,0.4
			c-3.4,1.6-5.9,4.3-6.9,7.7c-0.8,2.9-0.7,5.5,0.3,7.9c0.9,2.2,2.4,4,4.2,5.2c1,0.7,2.1,1.2,3.2,1.6c0,0,0,0,0,0
			c0.1,0.1,0.2,0.1,0.3,0.1c0,0,0.1,0,0.1,0c1,0.3,2.1,0.5,3.2,0.5c0.5,0,0.9,0,1.4,0c2.4,0,4.5-0.4,6.3-1.3c0.7-0.3,1.4-0.8,2-1.3
			c0,0,0.1,0,0.1,0c0.2,0,0.5-0.1,0.5-0.4c0-0.1,0-0.1,0-0.2C362.9,344.7,364.3,340.9,363.7,337z M354.4,349.4
			C354.4,349.4,354.4,349.4,354.4,349.4c-0.7-0.9-1.3-2-1.7-3c0,0,0,0,0.1,0c2.7-0.5,5-1.2,6.9-2.1c-0.1,0.9-0.2,1.9-0.3,2.8
			c-0.1,0.1-0.3,0.2-0.4,0.4C357.6,348.4,356.1,349.1,354.4,349.4z M338.8,337.6c0.2-1.7,0.7-3.3,1.4-4.7c0.7,0.4,1.4,0.7,2.2,0.8
			c-0.4,1.6-0.5,3.1-0.5,4.7c0,0.6,0.1,1.3,0.1,1.9c-0.3-0.1-0.7-0.1-1-0.3c-0.4-0.2-0.7-0.4-1.1-0.7c-0.4-0.3-0.7-0.5-1.2-0.7
			C338.8,338.3,338.8,337.9,338.8,337.6z M349.9,326.5c-0.4,2.2-0.5,4.4-0.5,6.7c-1.4,0.1-2.8,0.2-4.1,0.1c-0.6,0-1.1-0.1-1.7-0.2
			c0,0,0-0.1,0-0.1c0.5-1.9,1.2-4.1,2.6-5.4C347.3,327.1,348.6,326.7,349.9,326.5z M362.7,341.3c0,0-0.1,0-0.1,0.1
			c-0.6,0.5-1.2,1-2,1.5c0-1.6-0.1-3.2-0.4-4.8c0.9-0.4,1.7-0.8,2.5-1.5C363,338.2,363,339.7,362.7,341.3z M342.9,338.6
			c0-1.6,0.1-3.2,0.5-4.7c0.4,0.1,0.9,0.1,1.3,0.1c0.7,0.1,1.5,0.1,2.2,0.1c0.8,0,1.7,0,2.5-0.1c0,1.6,0.1,3.2,0.4,4.8
			c0.1,0.4,0.1,0.8,0.2,1.2c-2,0.3-4,0.4-6,0.4c-0.3,0-0.6,0-0.9,0C342.9,339.8,342.9,339.2,342.9,338.6z M359.2,337.7
			c-0.7,0.2-1.3,0.4-2,0.6l-0.3,0.1c-2,0.6-4,1-6.1,1.4c-0.1-0.4-0.1-0.9-0.2-1.3c-0.2-1.5-0.3-3.1-0.4-4.7c2.4-0.3,4.8-1,7-1.9
			C358.2,333.8,358.8,335.7,359.2,337.7z M343.4,341.1c0.1,0,0.2,0,0.3,0c2.1,0,4.2-0.2,6.3-0.5c0.3,1.7,0.7,3.4,1.3,5.2
			c-2.4,0.2-4.7,0-6.9-0.4c-0.6-1.3-1.1-2.8-1.4-4.2C343.2,341.1,343.3,341.1,343.4,341.1z M351,340.5c0,0,0.1,0,0.1,0
			c2.4-0.4,4.8-1,7.2-1.7c0.3-0.1,0.7-0.2,1.1-0.4c0.3,1.6,0.4,3.3,0.4,4.9c-0.5,0.3-1.1,0.5-1.8,0.8c-1.9,0.7-3.8,1.3-5.6,1.5
			C351.7,343.9,351.2,342.2,351,340.5z M360.1,337.4c-0.4-2-1-4-1.9-5.8c0.5-0.2,1-0.5,1.6-0.8c1.2,1.4,2.2,3.1,2.7,4.7
			c0,0.1,0,0.2,0.1,0.2C361.8,336.5,361,337,360.1,337.4z M357.8,330.8c-0.5-1.1-1.1-2.2-1.8-3.2c1.2,0.6,2.3,1.5,3.2,2.5
			C358.7,330.4,358.3,330.6,357.8,330.8z M354.3,326.9c0,0,0,0.1,0,0.1c1,1.3,1.9,2.7,2.6,4.2c-2.1,0.9-4.4,1.5-6.7,1.8
			c0-2.2,0.2-4.4,0.5-6.7C352,326.3,353.2,326.5,354.3,326.9z M344.3,328.5c-0.7,1.1-1.1,2.3-1.5,3.5c-0.1,0.3-0.2,0.6-0.2,0.9
			c-0.7-0.2-1.4-0.4-2-0.8c0.5-0.8,1-1.5,1.7-2.1C342.9,329.4,343.6,328.9,344.3,328.5z M339.4,340c0.5,0.3,0.9,0.6,1.5,0.8
			c0.4,0.1,0.9,0.2,1.3,0.3c0.2,1.4,0.6,2.7,1.2,4c-0.9-0.2-1.9-0.5-2.8-0.7c0,0,0,0-0.1,0c-0.9-1.4-1.5-3.1-1.7-4.7
			C339,339.7,339.2,339.8,339.4,340z M343.8,346c0.4,0.8,0.9,1.6,1.4,2.4c-0.2-0.1-0.4-0.2-0.6-0.3c-1.2-0.7-2.3-1.6-3.2-2.7
			C342.2,345.7,343,345.9,343.8,346z M346.9,349c-0.7-0.9-1.4-1.8-1.9-2.8c1.4,0.3,2.9,0.4,4.3,0.4c0.8,0,1.6-0.1,2.4-0.2
			c0.5,1.1,1,2.1,1.7,3c-0.6,0.1-1.2,0.1-1.9,0.1C349.9,349.7,348.3,349.5,346.9,349z M360.6,343.8c0.6-0.4,1.2-0.7,1.7-1.1
			c-0.4,1.2-1.1,2.3-1.9,3.3C360.5,345.3,360.5,344.5,360.6,343.8z"/>
	</g>
	<g class="st26">
		<path class="st18" d="M1036.4,205.3c-0.9-5.7-6.6-11.7-12.8-11.3c0,0-0.1,0-0.1,0c0,0-0.1,0-0.1,0c-0.1,0-0.1,0-0.2,0
			c-0.1,0-0.1,0-0.2,0c0,0,0,0-0.1,0c0,0-0.1,0-0.1,0c-1.4,0.2-2.7,0.6-3.9,1c-0.2-0.1-0.4-0.1-0.6,0c-0.1,0.1-0.3,0.2-0.4,0.4
			c-3.4,1.6-5.9,4.3-6.9,7.7c-0.8,2.9-0.7,5.5,0.3,7.9c0.9,2.2,2.4,4,4.2,5.2c1,0.7,2.1,1.2,3.2,1.6c0,0,0,0,0,0
			c0.1,0.1,0.2,0.1,0.3,0.1c0,0,0.1,0,0.1,0c1,0.3,2.1,0.5,3.2,0.5c0.5,0,0.9,0,1.4,0c2.4,0,4.5-0.4,6.3-1.3c0.7-0.3,1.4-0.8,2-1.3
			c0,0,0.1,0,0.1,0c0.2,0,0.5-0.1,0.5-0.4c0-0.1,0-0.1,0-0.2C1035.6,213,1037,209.2,1036.4,205.3z M1027.1,217.7
			C1027.1,217.7,1027.1,217.7,1027.1,217.7c-0.7-0.9-1.3-2-1.7-3c0,0,0,0,0.1,0c2.7-0.5,5-1.2,6.9-2.1c-0.1,0.9-0.2,1.9-0.3,2.8
			c-0.1,0.1-0.3,0.2-0.4,0.4C1030.3,216.7,1028.8,217.4,1027.1,217.7z M1011.5,205.9c0.2-1.7,0.7-3.3,1.4-4.7
			c0.7,0.4,1.4,0.7,2.2,0.8c-0.4,1.6-0.5,3.1-0.5,4.7c0,0.6,0.1,1.3,0.1,1.9c-0.3-0.1-0.7-0.1-1-0.3c-0.4-0.2-0.7-0.4-1.1-0.7
			c-0.4-0.3-0.7-0.5-1.2-0.7C1011.4,206.6,1011.4,206.2,1011.5,205.9z M1022.6,194.8c-0.4,2.2-0.5,4.4-0.5,6.7
			c-1.4,0.1-2.8,0.2-4.1,0.1c-0.6,0-1.1-0.1-1.7-0.2c0,0,0-0.1,0-0.1c0.5-1.9,1.2-4.1,2.6-5.4C1020,195.4,1021.2,195,1022.6,194.8z
			 M1035.3,209.5c0,0-0.1,0-0.1,0.1c-0.6,0.5-1.2,1-2,1.5c0-1.6-0.1-3.2-0.4-4.8c0.9-0.4,1.7-0.8,2.5-1.5
			C1035.7,206.4,1035.7,208,1035.3,209.5z M1015.5,206.9c0-1.6,0.1-3.2,0.5-4.7c0.4,0.1,0.9,0.1,1.3,0.1c0.7,0.1,1.5,0.1,2.2,0.1
			c0.8,0,1.7,0,2.5-0.1c0,1.6,0.1,3.2,0.4,4.8c0.1,0.4,0.1,0.8,0.2,1.2c-2,0.3-4,0.4-6,0.4c-0.3,0-0.6,0-0.9,0
			C1015.6,208.1,1015.5,207.5,1015.5,206.9z M1031.8,206c-0.7,0.2-1.3,0.4-2,0.6l-0.3,0.1c-2,0.6-4,1-6.1,1.4
			c-0.1-0.4-0.1-0.9-0.2-1.3c-0.2-1.5-0.3-3.1-0.4-4.7c2.4-0.3,4.8-1,7-1.9C1030.8,202.1,1031.4,204,1031.8,206z M1016.1,209.4
			c0.1,0,0.2,0,0.3,0c2.1,0,4.2-0.2,6.3-0.5c0.3,1.7,0.7,3.4,1.3,5.2c-2.4,0.2-4.7,0-6.9-0.4c-0.6-1.3-1.1-2.8-1.4-4.2
			C1015.9,209.4,1016,209.4,1016.1,209.4z M1023.6,208.8c0,0,0.1,0,0.1,0c2.4-0.4,4.8-1,7.2-1.7c0.3-0.1,0.7-0.2,1.1-0.4
			c0.3,1.6,0.4,3.3,0.4,4.9c-0.5,0.3-1.1,0.5-1.8,0.8c-1.9,0.7-3.8,1.3-5.6,1.5C1024.3,212.2,1023.9,210.4,1023.6,208.8z
			 M1032.7,205.7c-0.4-2-1-4-1.9-5.8c0.5-0.2,1-0.5,1.6-0.8c1.2,1.4,2.2,3.1,2.7,4.7c0,0.1,0,0.2,0.1,0.2
			C1034.5,204.7,1033.6,205.3,1032.7,205.7z M1030.5,199.1c-0.5-1.1-1.1-2.2-1.8-3.2c1.2,0.6,2.3,1.5,3.2,2.5
			C1031.4,198.7,1030.9,198.9,1030.5,199.1z M1027,195.2c0,0,0,0.1,0,0.1c1,1.3,1.9,2.7,2.6,4.2c-2.1,0.9-4.4,1.5-6.7,1.8
			c0-2.2,0.2-4.4,0.5-6.7C1024.7,194.6,1025.9,194.8,1027,195.2z M1017,196.8c-0.7,1.1-1.1,2.3-1.5,3.5c-0.1,0.3-0.2,0.6-0.2,0.9
			c-0.7-0.2-1.4-0.4-2-0.8c0.5-0.8,1-1.5,1.7-2.1C1015.6,197.7,1016.3,197.2,1017,196.8z M1012,208.2c0.5,0.3,0.9,0.6,1.5,0.8
			c0.4,0.1,0.9,0.2,1.3,0.3c0.2,1.4,0.6,2.7,1.2,4c-0.9-0.2-1.9-0.5-2.8-0.7c0,0,0,0-0.1,0c-0.9-1.4-1.5-3.1-1.7-4.7
			C1011.7,208,1011.8,208.1,1012,208.2z M1016.5,214.3c0.4,0.8,0.9,1.6,1.4,2.4c-0.2-0.1-0.4-0.2-0.6-0.3c-1.2-0.7-2.3-1.6-3.2-2.7
			C1014.8,213.9,1015.6,214.1,1016.5,214.3z M1019.6,217.3c-0.7-0.9-1.4-1.8-1.9-2.8c1.4,0.3,2.9,0.4,4.3,0.4c0.8,0,1.6-0.1,2.4-0.2
			c0.5,1.1,1,2.1,1.7,3c-0.6,0.1-1.2,0.1-1.9,0.1C1022.5,218,1021,217.8,1019.6,217.3z M1033.2,212.1c0.6-0.4,1.2-0.7,1.7-1.1
			c-0.4,1.2-1.1,2.3-1.9,3.3C1033.1,213.5,1033.2,212.8,1033.2,212.1z"/>
	</g>
	<g class="st26">
		<path class="st18" d="M56.4,140.5c-0.9-5.7-6.6-11.7-12.8-11.3c0,0-0.1,0-0.1,0c0,0-0.1,0-0.1,0c-0.1,0-0.1,0-0.2,0
			c-0.1,0-0.1,0-0.2,0c0,0,0,0-0.1,0c0,0-0.1,0-0.1,0c-1.4,0.2-2.7,0.6-3.9,1c-0.2-0.1-0.4-0.1-0.6,0c-0.1,0.1-0.3,0.2-0.4,0.4
			c-3.4,1.6-5.9,4.3-6.9,7.7c-0.8,2.9-0.7,5.5,0.3,7.9c0.9,2.2,2.4,4,4.2,5.2c1,0.7,2.1,1.2,3.2,1.6c0,0,0,0,0,0
			c0.1,0.1,0.2,0.1,0.3,0.1c0,0,0.1,0,0.1,0c1,0.3,2.1,0.5,3.2,0.5c0.5,0,0.9,0,1.4,0c2.4,0,4.5-0.4,6.3-1.3c0.7-0.3,1.4-0.8,2-1.3
			c0,0,0.1,0,0.1,0c0.2,0,0.5-0.1,0.5-0.4c0-0.1,0-0.1,0-0.2C55.6,148.3,57,144.4,56.4,140.5z M47.1,152.9
			C47.1,152.9,47.1,152.9,47.1,152.9c-0.7-0.9-1.3-2-1.7-3c0,0,0,0,0.1,0c2.7-0.5,5-1.2,6.9-2.1c-0.1,0.9-0.2,1.9-0.3,2.8
			c-0.1,0.1-0.3,0.2-0.4,0.4C50.3,152,48.8,152.6,47.1,152.9z M31.5,141.1c0.2-1.7,0.7-3.3,1.4-4.7c0.7,0.4,1.4,0.7,2.2,0.8
			c-0.4,1.6-0.5,3.1-0.5,4.7c0,0.6,0.1,1.3,0.1,1.9c-0.3-0.1-0.7-0.1-1-0.3c-0.4-0.2-0.7-0.4-1.1-0.7c-0.4-0.3-0.7-0.5-1.2-0.7
			C31.4,141.8,31.4,141.5,31.5,141.1z M42.6,130c-0.4,2.2-0.5,4.4-0.5,6.7c-1.4,0.1-2.8,0.2-4.1,0.1c-0.6,0-1.1-0.1-1.7-0.2
			c0,0,0-0.1,0-0.1c0.5-1.9,1.2-4.1,2.6-5.4C40,130.6,41.2,130.3,42.6,130z M55.3,144.8c0,0-0.1,0-0.1,0.1c-0.6,0.5-1.2,1-2,1.5
			c0-1.6-0.1-3.2-0.4-4.8c0.9-0.4,1.7-0.8,2.5-1.5C55.7,141.7,55.7,143.3,55.3,144.8z M35.5,142.1c0-1.6,0.1-3.2,0.5-4.7
			c0.4,0.1,0.9,0.1,1.3,0.1c0.7,0.1,1.5,0.1,2.2,0.1c0.8,0,1.7,0,2.5-0.1c0,1.6,0.1,3.2,0.4,4.8c0.1,0.4,0.1,0.8,0.2,1.2
			c-2,0.3-4,0.4-6,0.4c-0.3,0-0.6,0-0.9,0C35.6,143.3,35.5,142.7,35.5,142.1z M51.8,141.2c-0.7,0.2-1.3,0.4-2,0.6l-0.3,0.1
			c-2,0.6-4,1-6.1,1.4c-0.1-0.4-0.1-0.9-0.2-1.3c-0.2-1.5-0.3-3.1-0.4-4.7c2.4-0.3,4.8-1,7-1.9C50.8,137.3,51.4,139.3,51.8,141.2z
			 M36.1,144.6c0.1,0,0.2,0,0.3,0c2.1,0,4.2-0.2,6.3-0.5c0.3,1.7,0.7,3.4,1.3,5.2c-2.4,0.2-4.7,0-6.9-0.4c-0.6-1.3-1.1-2.8-1.4-4.2
			C35.9,144.6,36,144.6,36.1,144.6z M43.6,144c0,0,0.1,0,0.1,0c2.4-0.4,4.8-1,7.2-1.7c0.3-0.1,0.7-0.2,1.1-0.4
			c0.3,1.6,0.4,3.3,0.4,4.9c-0.5,0.3-1.1,0.5-1.8,0.8c-1.9,0.7-3.8,1.3-5.6,1.5C44.3,147.5,43.9,145.7,43.6,144z M52.7,140.9
			c-0.4-2-1-4-1.9-5.8c0.5-0.2,1-0.5,1.6-0.8c1.2,1.4,2.2,3.1,2.7,4.7c0,0.1,0,0.2,0.1,0.2C54.5,140,53.6,140.5,52.7,140.9z
			 M50.5,134.4c-0.5-1.1-1.1-2.2-1.8-3.2c1.2,0.6,2.3,1.5,3.2,2.5C51.4,133.9,50.9,134.1,50.5,134.4z M47,130.5c0,0,0,0.1,0,0.1
			c1,1.3,1.9,2.7,2.6,4.2c-2.1,0.9-4.4,1.5-6.7,1.8c0-2.2,0.2-4.4,0.5-6.7C44.7,129.9,45.9,130.1,47,130.5z M37,132
			c-0.7,1.1-1.1,2.3-1.5,3.5c-0.1,0.3-0.2,0.6-0.2,0.9c-0.7-0.2-1.4-0.4-2-0.8c0.5-0.8,1-1.5,1.7-2.1C35.6,133,36.3,132.5,37,132z
			 M32,143.5c0.5,0.3,0.9,0.6,1.5,0.8c0.4,0.1,0.9,0.2,1.3,0.3c0.2,1.4,0.6,2.7,1.2,4c-0.9-0.2-1.9-0.5-2.8-0.7c0,0,0,0-0.1,0
			c-0.9-1.4-1.5-3.1-1.7-4.7C31.7,143.2,31.8,143.4,32,143.5z M36.5,149.6c0.4,0.8,0.9,1.6,1.4,2.4c-0.2-0.1-0.4-0.2-0.6-0.3
			c-1.2-0.7-2.3-1.6-3.2-2.7C34.8,149.2,35.6,149.4,36.5,149.6z M39.6,152.6c-0.7-0.9-1.4-1.8-1.9-2.8c1.4,0.3,2.9,0.4,4.3,0.4
			c0.8,0,1.6-0.1,2.4-0.2c0.5,1.1,1,2.1,1.7,3c-0.6,0.1-1.2,0.1-1.9,0.1C42.5,153.2,41,153,39.6,152.6z M53.2,147.3
			c0.6-0.4,1.2-0.7,1.7-1.1c-0.4,1.2-1.1,2.3-1.9,3.3C53.1,148.8,53.2,148,53.2,147.3z"/>
	</g>
	<g class="st26">
		<g>
			<path class="st18" d="M457.5,57.6c-1.1,0-2.2,0.3-3.3,0.9c-2.3,1.4-3.5,3.8-3.2,6.4c0.4,2.7,2.2,4.7,4.7,5.3
				c0.4,0.1,0.9,0.1,1.3,0.1c2.2,0,4.3-1,5.6-2.7c2-2.5,1.7-5.8-0.7-8.2C460.7,58.3,459.1,57.6,457.5,57.6z M463.3,64.3
				c-0.1,1.5-0.8,2.9-2.1,3.9c-1.1,0.9-2.6,1.4-4.1,1.4c-1.6,0-3-0.6-4-1.7c-1.9-2.2-1.9-5.6,0.1-7.7c1.1-1.2,2.6-1.9,4.2-1.9
				c1.5,0,2.9,0.6,4.1,1.6C462.8,61.2,463.4,62.8,463.3,64.3z"/>
			<path class="st18" d="M467.5,77.1l-2.9-5.4c-0.1-0.1-0.2-0.2-0.4-0.1c-0.1,0-0.2,0.1-0.2,0.1l-0.9-1.7c0,0-0.1-0.1-0.1-0.1
				c0.4-0.3,0.8-0.7,1.1-1.1c2.6-3.2,2.3-7.5-0.9-10.6c-1.6-1.5-3.7-2.3-5.7-2.3c-1.4,0-2.8,0.4-4.1,1.1c-2.9,1.7-4.5,4.8-4.2,8
				c0.4,3.5,2.7,6.2,5.8,6.9c0.6,0.1,1.2,0.2,1.9,0.2c1,0,1.9-0.2,2.9-0.5c0,0,0,0,0,0l1.1,1.7c-0.1,0.1-0.1,0.1-0.2,0.2
				c-0.1,0.1-0.2,0.3-0.1,0.5c0.5,0.7,1,1.5,1.5,2.2c1,1.5,2,3,3.1,4.4c0.4,0.5,1.2,1.1,1.9,1.1c0.4,0,0.7-0.2,0.9-0.5
				C469.1,80.2,468,78.1,467.5,77.1z M462.5,70.3l0.8,1.7c-0.6,0.3-1.2,0.6-1.8,1l-1-1.6C461.2,71.1,461.9,70.7,462.5,70.3z
				 M464.9,73.8l2,3.7c0.4,0.8,0.7,1.6,0.8,2.3c0.1,0.4,0,0.9-0.2,1.2c-0.2,0.2-0.4,0.2-0.7,0.1c-0.3-0.1-0.6-0.4-0.9-0.7
				c-0.5-0.6-1-1.3-1.4-1.9c-0.2-0.3-0.4-0.7-0.6-1l-1.5-2.2c0,0-0.1-0.1-0.1-0.1C463.1,74.6,464,74.2,464.9,73.8z M464,67.8
				c-1.6,2.2-4.2,3.6-7,3.6c-0.3,0-0.7,0-1-0.1c-2.9-0.4-5.2-2.5-5.9-5.4c-0.7-3,0.3-5.9,2.7-7.7c1.4-1,2.9-1.6,4.6-1.6
				c1.9,0,3.8,0.8,5.3,2.1C465.5,61.4,466,64.9,464,67.8z"/>
		</g>
	</g>
	<g class="st26">
		<g>
			<path class="st18" d="M896.9,485.6c-1.1,0-2.2,0.3-3.3,0.9c-2.3,1.4-3.5,3.8-3.2,6.4c0.4,2.7,2.2,4.7,4.7,5.3
				c0.4,0.1,0.9,0.1,1.3,0.1c2.2,0,4.3-1,5.6-2.7c2-2.5,1.7-5.8-0.7-8.2C900.1,486.2,898.5,485.6,896.9,485.6z M902.7,492.2
				c-0.1,1.5-0.8,2.9-2.1,3.9c-1.1,0.9-2.6,1.4-4.1,1.4c-1.6,0-3-0.6-4-1.7c-1.9-2.2-1.9-5.6,0.1-7.7c1.1-1.2,2.6-1.9,4.2-1.9
				c1.5,0,2.9,0.6,4.1,1.6C902.1,489.2,902.8,490.7,902.7,492.2z"/>
			<path class="st18" d="M906.9,505.1l-2.9-5.4c-0.1-0.1-0.2-0.2-0.4-0.1c-0.1,0-0.2,0.1-0.2,0.1l-0.9-1.7c0,0-0.1-0.1-0.1-0.1
				c0.4-0.3,0.8-0.7,1.1-1.1c2.6-3.2,2.3-7.5-0.9-10.6c-1.6-1.5-3.7-2.3-5.7-2.3c-1.4,0-2.8,0.4-4.1,1.1c-2.9,1.7-4.5,4.8-4.2,8
				c0.4,3.5,2.7,6.2,5.8,6.9c0.6,0.1,1.2,0.2,1.9,0.2c1,0,1.9-0.2,2.9-0.5c0,0,0,0,0,0l1.1,1.7c-0.1,0.1-0.1,0.1-0.2,0.2
				c-0.1,0.1-0.2,0.3-0.1,0.5c0.5,0.7,1,1.5,1.5,2.2c1,1.5,2,3,3.1,4.4c0.4,0.5,1.2,1.1,1.9,1.1c0.4,0,0.7-0.2,0.9-0.5
				C908.4,508.2,907.4,506,906.9,505.1z M901.8,498.2l0.8,1.7c-0.6,0.3-1.2,0.6-1.8,1l-1-1.6C900.6,499,901.2,498.7,901.8,498.2z
				 M904.3,501.7l2,3.7c0.4,0.8,0.7,1.6,0.8,2.3c0.1,0.4,0,0.9-0.2,1.2c-0.2,0.2-0.4,0.2-0.7,0.1c-0.3-0.1-0.6-0.4-0.9-0.7
				c-0.5-0.6-1-1.3-1.4-1.9c-0.2-0.3-0.4-0.7-0.6-1l-1.5-2.2c0,0-0.1-0.1-0.1-0.1C902.5,502.6,903.4,502.1,904.3,501.7z
				 M903.3,495.7c-1.6,2.2-4.2,3.6-7,3.6c-0.3,0-0.7,0-1-0.1c-2.9-0.4-5.2-2.5-5.9-5.4c-0.7-3,0.3-5.9,2.7-7.7
				c1.4-1,2.9-1.6,4.6-1.6c1.9,0,3.8,0.8,5.3,2.1C904.8,489.3,905.3,492.9,903.3,495.7z"/>
		</g>
	</g>
	<g class="st26">
		<g>
			<path class="st18" d="M619.9,232.3c-1.3-0.4-1.4-3-1-4.1c2-2.3,5.3-3.4,7.3-5.8c4.6-6.8-5.8-3.1-7.9-0.8v0
				c-0.8,0.9-3.2,1.8-2.5,0.3c2-4.3,13.4-9.1,13.5-1.6c0.1,4-9.9,7.1-8.4,10.9C621,231.9,620.5,232.3,619.9,232.3z M621.1,237.2
				c0.1,2.9-4.3,4.1-4.4,0.7C616.7,235,621.1,233.7,621.1,237.2z"/>
		</g>
	</g>
	<g class="st26">
		<g>
			<path class="st18" d="M291.3,62.7c-1.3-0.4-1.4-3-1-4.1c2-2.3,5.3-3.4,7.3-5.8c4.6-6.8-5.8-3.1-7.9-0.8v0
				c-0.8,0.9-3.2,1.8-2.5,0.3c2-4.3,13.4-9.1,13.5-1.6c0.1,4-9.9,7.1-8.4,10.9C292.4,62.4,292,62.7,291.3,62.7z M292.6,67.6
				c0.1,2.9-4.3,4.1-4.4,0.7C288.1,65.5,292.5,64.2,292.6,67.6z"/>
		</g>
	</g>
	<g class="st26">
		<g>
			<path class="st18" d="M513.9,777c-1.3-0.4-1.4-3-1-4.1c2-2.3,5.3-3.4,7.3-5.8c4.6-6.8-5.8-3.1-7.9-0.8v0
				c-0.8,0.9-3.2,1.8-2.5,0.3c2-4.3,13.4-9.1,13.5-1.6c0.1,4-9.9,7.1-8.4,10.9C515,776.6,514.5,777,513.9,777z M515.1,781.9
				c0.1,2.9-4.3,4.1-4.4,0.7C510.7,779.8,515.1,778.4,515.1,781.9z"/>
		</g>
	</g>
</g>
</svg>
